<?xml version="1.0" encoding="UTF-8"?>
<svg id="Layer_1" data-name="Layer 1" xmlns="http://www.w3.org/2000/svg" viewBox="0 0 699.51 573.79">
  <defs>
    <style>
      .cls-1 {
        fill: #7c7c7c;
      }

      .cls-1, .cls-2, .cls-3, .cls-4, .cls-5, .cls-6, .cls-7, .cls-8, .cls-9, .cls-10, .cls-11, .cls-12, .cls-13, .cls-14, .cls-15, .cls-16 {
        stroke-width: 0px;
      }

      .cls-2 {
        fill: #bbd65e;
      }

      .cls-3 {
        fill: #fefefe;
      }

      .cls-4 {
        fill: #454545;
      }

      .cls-5 {
        fill: #838282;
      }

      .cls-6 {
        fill: #787877;
      }

      .cls-7 {
        fill: #686868;
      }

      .cls-8 {
        fill: #f2f1f1;
      }

      .cls-9 {
        fill: #0d0d0d;
      }

      .cls-10 {
        fill: #494949;
      }

      .cls-11 {
        fill: #8d8d8d;
      }

      .cls-12 {
        fill: #888;
      }

      .cls-13 {
        fill: #727171;
      }

      .cls-14 {
        fill: #f9f8f8;
      }

      .cls-15 {
        fill: #fbfafa;
      }

      .cls-16 {
        fill: #3b4236;
      }
    </style>
  </defs>
  <path class="cls-15" d="M414.57,409.52c.49.43.98.87,1.46,1.3,6.92,3.02,13.85,6.04,20.77,9.06,2.51,1.23,4.85,2.86,7.72,3.21,4.21,2.42,8.48,4.69,13.26,5.82,3.13,1.87,6.33,3.56,10,4.11.14,1.57,1.13,1.92,2.49,1.74,4.53,1.11,8.36,4.89,13.53,3.58.74,3.94,4.5,3.28,6.97,4.6,6.92,2.85,13.78,5.88,21.01,7.92,3.06,1.5,6.18,2.82,9.58,3.35,4.74,2.98,10.37,3.57,15.43,5.7.38,0,.76-.01,1.13-.02,3.45,1.81,7.16,2.87,10.93,3.75,3.54.54,6.2,2.69,8.86,4.85.4.51.73,1.09,1.2,1.52,16.96,15.1,33.49,30.62,47.16,48.88,1.31,1.74,4.11,3.55,2.82,5.8-1.1,1.91-4.01.18-6.09.5-2.4-1.01-4.9.15-7.32-.3-7.24-1.35-14.49-2.7-21.73-4.05-5.38-1.3-10.79-2.49-16.14-3.93-10.96-2.95-21.88-6.04-32.82-9.07-4.52-2.76-9.91-2.7-14.76-4.69-8.2-3.36-16.4-7.01-25.27-8.46-4.21-3.52-9.45-4.29-14.55-5.43.02.48.03.97.05,1.45-1.39.23-2.33-.19-2.48-1.74-3.03-4.03-7.28-5.13-12.03-5.07,0,0,.05.03.05.03-.42-2.11-1.49-2.29-3.05-1.02,0,0,.04.03.04.03.62-2.61-1.93-1.79-2.9-2.67-2.02-.83-4.03-1.65-6.05-2.48-2.41-1.4-4.89-2.63-7.66-3.14-4.46-2.13-8.5-5.49-13.94-4.76,0,0,.1.05.1.05-.32-.65-.41-1.66-1.57-1.03,0,0,.02.02.02.02,0-2.33-2.18-2.3-3.51-2.99-2.36-1.23-5.31-.91-7.53-2.66-10.46-6.03-21.67-10.49-32.51-15.74-2.24-1.81-4.93-2.71-7.58-3.66-.45.03-.91.05-1.36.08-2.7-3.09-6.34-4.39-10.16-5.33-.57-.84-1.14-1.68-1.7-2.52.22-1.4-.04-2.62-1.33-3.44-.16-.54-.32-1.09-.48-1.63.26-.64-.04-1.02-.59-1.29-.12-.58-.25-1.15-.37-1.73.24-.64.02-1.06-.6-1.29-5.14-15.23-10.28-30.46-15.42-45.69.28-.93-.12-1.57-.87-2.06-.05-.3-.14-.6-.25-.89.28-1.71-.34-3.11-1.52-4.31-.18-.56-.35-1.12-.53-1.68.07-.39.15-.77.22-1.16.85-.04,1.7-.09,2.55-.13,2.14.66,4.27,1.32,6.41,1.97,0,0,.31.28.31.28,2.9,3.2,6.28,5.42,10.82,5.23,1.55,3.48,4.5,4.52,8,4.61,0,0,0,.01,0,.01,3.25,3.55,7.36,5.37,12.05,6.04,0,0,0,0,0,0,2.23,3.84,6.07,4.39,9.94,4.87,2.17,4.02,6.17,4.46,10.06,5.13,0,0-.07-.06-.07-.06,5.42,5.05,11.99,7.74,19.1,9.3.03.33.07.67.1,1,.26-.03.47.08.6.33Z"/>
  <path class="cls-15" d="M219.8,205.97c.43.05.86.09,1.28.14-.18,1.17-.32,2.37,1.14,2.83,3.22,1.01,6.11,3.1,9.67,3.06,0,0-.08-.06-.08-.06-.04.7.39.99.99,1.14,2.64,1.47,5.33,2.79,8.34,3.32.1,2.36-2.12,2.77-3.42,3.79-3.25,2.55-6.88,4.63-10.1,7.21-6.56,5.25-14.41,8.83-19.84,15.51-4.29,2.99-6.55,8.37-11.9,10.12-.13-2.58-1.78-3.18-3.98-3.07-3.38-.84-6.33-3.18-10.03-2.96-.05-1.41-.8-2.04-2.19-1.96-2.94-.98-5.88-1.96-8.81-2.94-5.06-1.55-9.45-5.06-15-5.19-.19-2.37-2.01-1.85-3.47-1.96-2.38-.74-4.77-1.48-7.15-2.22-6.29-1.85-12.06-5.4-18.79-5.87-1.17-1.51-2.98-1.43-4.6-1.86-1.63-1.08-3.26-2.16-4.89-3.24-1.89-1.78-3.23-4.26-6.1-4.81l.04.04c.13-1.23-.95-1.65-1.61-2.3-9.12-8.92-18.26-17.81-27.39-26.7-4.11-4.97-8.24-9.93-12.31-14.94-.76-.93-1.67-.93-2.66-.93.72-3.06-2.78-4.25-3.05-6.88,4.99-1,10.02.04,15.02-.32,9.33,1.65,18.66,3.29,27.98,4.94,1.16,1.86,2.96.04,4.45.84,5.26,2.8,11.22,3.44,16.88,4.99,1.3.35,3.48,2.03,4.6-.69.39.02.78.03,1.17.05-.38,2.93,2.1,3.02,3.81,3.56,4.99,1.56,10.05,2.91,15.08,4.34,3.83,1.73,7.65,3.46,12.04,2.63,2.77,4.09,7.33,4.14,11.51,4.98.14.03.49-1.06.75-1.62.99.41,1.98.82,2.97,1.22-.51.5-1.01,1-1.52,1.51.76.1,1.52.19,2.27.29.88.94,1.73,3.08,2.67.04,1.59.12,3.39-.49,4.45,1.35,5.19,3.94,10.49,7.63,17.45,7.37.3.23.61.47.91.7,2.64,3.21,6.63,3.49,10.19,4.72,1.13,1.02,2.21,1.15,3.23-.15Z"/>
  <path class="cls-15" d="M146.7,312.94c-2.47-.08-2.82-2.26-3.79-3.83-2.81-4.63-7.18-7.21-12.03-9.16,0,0,.04.03.04.03-.12-2.04-1.8-1.77-3.09-2.08,0,0,.08.07.08.07-1.37-4.5-5.92-5.53-8.96-8.22-.36.07-.72.14-1.08.21,0,0-.02-.02-.02-.02.55-.68.21-1.19-.34-1.63-6.84-5.52-13.69-11.03-20.53-16.55-15.14-13.21-29.86-26.83-43.42-41.69-2.83-3.1-4.9-6.93-8.68-9.12,0,0,0,.02,0,.02-.54-4.31-5.38-6.33-5.96-10.81,3.51,0,6.78,0,10.04,0,.87.17,1.74.35,2.61.52,2.71.3,5.42.6,8.13.9,2.52,2.09,5.59,2.03,8.61,2.17,4.52.71,9.05,1.43,13.57,2.14.95.26,1.91.53,2.86.79.83,1.51,2.22,1.27,3.57,1.15,5.2,1.15,10.39,2.29,15.59,3.44.39,2.1,1.98,1.64,3.38,1.57,1.05.05,2.1.1,3.16.15h-.1c1.53.54,3.05,1.09,4.58,1.64,2.3.86,4.6,1.71,6.9,2.57.95,2.23,2.26,3.98,5.04,3.8h.02c-.56,1.25.08,1.28,1.01,1.01l-.03-.03c-.45,1.77,1.16,2.26,2.07,2.97,8.99,7.12,17.97,14.25,27.11,21.16,5.1,3.85,9.66,8.53,15.81,10.86l.02.02c.62,3.08,5.04,2.86,5.37,6.19-3.57,3.37-6.03,7.53-8.35,11.78-2.7,4.76-5.19,9.65-8.16,14.23-3,4.63-3.92,9.41-2.6,14.69.1.49.19.97.29,1.46.36,1.25.73,2.5,1.09,3.76-4.11-.22-6.25-3.81-9.51-5.49-1.28-.66-2.45-3.23-4.28-.66Z"/>
  <path class="cls-9" d="M583.92,44.87c.19,25.2-20.12,45.94-45.24,46.2-25.09.26-45.79-19.84-46.04-44.73C492.38,20.78,512.54.23,538.11,0c25.11-.22,45.62,19.87,45.81,44.87ZM514.78,44.23c0,4.4,1.81,7.98,4.73,11.16,3.75,4.08,8.35,7.04,12.86,10.14,11.38,7.85,7.97,6.88,16.86-2.02,5.09-5.1,10.49-10.28,12.24-17.8,1.45-6.22-1.24-12.81-6.5-15.9-5.31-3.12-11.01-2.39-15.68,2.58-1.79,1.91-2.82,1.51-4.51.3-4.15-2.98-8.62-3.47-13.09-.86-4.68,2.73-6.91,6.99-6.92,12.41Z"/>
  <path class="cls-2" d="M613.63,58.55c.05-23.56,19.1-43.26,42.82-42.95,25.48.33,42.98,20.17,43.06,43.32.08,23.13-19.39,42.48-42.68,42.65-23.84.18-43.25-19.14-43.2-43.01ZM675.07,46.74c-.39-3.25-1.79-6.06-5.75-6.73-3.99-.68-6.89.94-8.39,4.62-2.31,5.68-11.83,10.23-17.49,8.2-3.37-1.21-6.33-.49-8.47,2.34-2.28,3.02-2.18,6.29.29,9.16,2.33,2.7,5.35,3.15,8.61,1.73,5.27-2.29,14.95,1.46,17.1,6.65,1.58,3.8,5.76,5.66,9.44,4.22,3.6-1.41,5.41-5.18,4.3-8.98-1.04-3.55-5.55-6.6-8.55-4.77-6.37,3.9-10.95-.94-16.23-2.36-1.12-.3-2.4-1.6-.85-2.49,3.59-2.05,7.49-3.55,11.16-5.47,2.11-1.1,3.41.5,5.06,1.02,5.02,1.59,9.76-1.73,9.77-7.15Z"/>
  <path class="cls-9" d="M101.54,377.54c6.06,11.1,12.12,22,17.96,33.01,1.63,3.08,3.74,5.27,6.82,6.9,10.28,5.43,20.43,11.12,30.69,16.59,3.01,1.61,2.85,2.42-.11,3.99-10.57,5.61-20.99,11.48-31.52,17.16-2.13,1.15-3.7,2.57-4.87,4.74-6.26,11.54-12.65,23.01-19.22,34.89-3.67-4.03-5.38-8.93-7.95-13.26-3.81-6.43-7.51-12.95-10.75-19.67-1.88-3.91-4.82-6.09-8.42-8-9.53-5.06-18.99-10.26-28.43-15.49-1.09-.6-2.88-.96-2.88-2.45,0-1.53,1.81-1.69,2.91-2.29,10.07-5.5,20.14-10.98,30.25-16.39,2.58-1.38,4.47-3.18,5.87-5.82,5.39-10.12,10.95-20.14,16.5-30.18.7-1.26.98-2.9,3.14-3.74Z"/>
  <path class="cls-9" d="M644.43,228.34c-23.27.08-42.01-18.27-42.26-41.38-.25-23.19,18.61-42.45,41.75-42.64,23.91-.19,42.76,18.28,42.75,41.89-.01,23.18-18.93,42.05-42.24,42.13ZM627.87,173.43c1.98,10.81,3.89,21.58,5.97,32.31.52,2.68,2.32,2.99,4.43,1.39,9.64-7.32,19.3-14.61,28.88-22.01,2.03-1.57,2.26-3.6-.57-4.44-11.76-3.46-23.57-6.73-35.37-10.06-2.49-.7-3.35.57-3.35,2.81Z"/>
  <path class="cls-9" d="M353.66,428c.12.58.25,1.15.37,1.73-.24.63-.06,1.07.59,1.29.16.54.32,1.09.48,1.63-.29,1.43.2,2.56,1.33,3.44.57.84,1.14,1.68,1.7,2.52-.36,1.52-1.1,3.09.47,4.4,1.24,7.04-.62,13.09-5.77,18.09-.34.26-.68.52-1.02.79-11.1,4.29-20,.29-24.32-10.9-.29-.76-.76-1.45-1.14-2.17.2-.52.11-.92-.47-1.12-1.17-3.62-2.34-7.24-3.51-10.87.17-.52.02-.86-.55-.96-.19-.69-.37-1.39-.56-2.08.27-.5.12-.83-.42-.99-1.29-5.1-2.97-10.06-5.03-14.91-.63-1.7.69-4-1.62-5.17-7.47-21.94-14.94-43.88-22.4-65.83-.58-1.72-.83-3.64-3.16-3.92.76-4.21-.19-8-2.78-11.39-.61-.75-.72-1.52-.11-2.33.42-.12.84-.24,1.26-.37.77.14,1.35-.13,1.77-.79,6.78-2.39,13.57-4.78,20.35-7.17.5-.15,1-.31,1.51-.46.5-.19.99-.38,1.49-.57,2.78-.74,3.89,1.55,5.44,3.02.21.35.42.69.63,1.04.2.34.39.68.59,1.03.18.67.36,1.34.55,2.01-.16.47-.08.82.48.92,1.53,4.7,3.06,9.39,4.59,14.09-.26.49-.09.75.44.83.07,1.53.39,2.97,1.45,4.15.15.38.3.76.46,1.13.14.61.28,1.22.42,1.83.19.4.38.8.56,1.2.14.6.29,1.19.43,1.79-.14.56.09.89.63,1.04.11.9.21,1.8.32,2.7-.24.65,0,1.07.64,1.29.14.24.22.51.24.79-.27.56-.19,1.01.39,1.32.21.55.43,1.11.64,1.66-.28.6-.11,1.03.48,1.32.43.97.85,1.94,1.28,2.92.04.73.43,1,1.13.84,0,0,.02,0,.02,0-1,1.87-.98,3.63.55,5.24.18.56.35,1.12.53,1.69-.3,1.72.23,3.15,1.52,4.31.11.29.2.58.25.89-.27.92.09,1.58.87,2.06,5.14,15.23,10.28,30.46,15.42,45.69-.22.63.03,1.04.6,1.29Z"/>
  <path class="cls-9" d="M169.86,284.95c2.32-4.26,4.78-8.41,8.35-11.78.94-.97,1.87-1.94,2.81-2.91,2.87-2.92,5.91-5.69,8.56-8.79,2.27-2.66,5.84-4.42,6.29-8.45,5.35-1.75,7.61-7.12,11.9-10.12.85.4,1.02,1.2,1.18,2-3.03,6.82-2.81,13.97-1.65,21.04,3.42,20.83,12.8,39.02,25.92,55.26,6.03,7.47,12.71,14.58,22.69,17.02.87,1.47,3.59-.13,3.86,2.34-6.5,1.05-12.97,2.32-19.51,3.11-12.45,1.5-24.61,5.52-37.37,4.3-1.28-.33-2.02.12-2.12,1.48-.32-.15-.64-.29-.97-.44-.43-.8-1-1.33-2-1.02-.35.02-.65-.11-.87-.38,0-.8-.02-1.61-.03-2.41.99-.04,1.98-.08,2.98-.12.42.82,1.18.85,1.4.1.33-1.13-.61-1.26-1.5-1.2-16.63-14.6-26.14-32.82-27.96-54.94-.24-1.55-2.16-2.29-1.96-4.06Z"/>
  <path class="cls-14" d="M202.89,347.97c12.76,1.22,24.93-2.8,37.37-4.3,6.53-.79,13.01-2.06,19.51-3.11,3.88-1.27,7.85-2.3,11.59-3.89,3.24-1.38,5.96-1.31,8.56,1.1,2,3.26,5.56,3.89,8.72,5.21,2.33.28,2.58,2.21,3.16,3.92,7.46,21.95,14.93,43.89,22.4,65.83-.17.97.26,2.5-1.77,1.42-1.41-.75-2.68-2.48-4.66-1.26,0,0,.02,0,.02,0,.39-2.39-1.69-2.27-2.99-2.94-1.2-.83-2.34-1.9-3.98-1.03,0,0-.02-.02-.02-.02-1.95-3.35-5.1-4.5-8.73-4.79-.16-.13-.31-.26-.45-.4-2.25-3.59-6.09-4.65-9.69-6.1-.38.1-.76.19-1.13.29,0,0,.03.03.03.03-1.93-3.63-5.1-5.02-9.04-5.03,0,0,.06.04.06.04.89-1.22-.26-1.31-.92-1.66-6.78-4.83-14-8.91-21.53-12.46-5.09-3.96-10.14-7.99-16.82-8.96-.23-.27-.47-.53-.7-.8-1.26-3.93-4.76-4.68-8.08-5.68,0,0,.09-.32.09-.32-.36-.4-.72-.79-1.09-1.19,0,0,.09.07.09.07-.33-.02-.66-.03-.99-.05-3.21.03-6.12-.94-8.46-3.1-.95-.88-1.64-2-3.04-2.22.02-.32.18-.52.49-.6.05-.14.11-.27.15-.4.03-.12.03-.25.04-.38-.05.28-.09.56-.14.84-.32.16-.62.14-.92-.06-.58-.19-1.17-.37-1.75-.55,0,0,0-.09,0-.09-.22-.21-.42-.44-.61-.68.78-3.92-4.12-3.8-4.77-6.7Z"/>
  <path class="cls-9" d="M68.51,35.07c15.93.03,29.16,13.37,29.1,29.35-.06,16.29-13.27,29.4-29.61,29.39-15.79,0-29.16-13.5-29.14-29.4.02-16.2,13.33-29.37,29.65-29.34Z"/>
  <path class="cls-4" d="M532.5,317.05c.32.25.64.51.97.76-.65.13-1.31.26-1.96.4-14.03,11.32-29.64,7.3-45.1,4.63-11.57-2-23.12-4.12-34.68-6.18-.86-.35-1.73-.7-2.59-1.04v-.03c1.64-.27,3.3-.53,4.95-.8,7.76.6,15.25,3.14,23.07,3.33,1.6.93,3.25,1.13,6.24.64-2.03-.94-2.84-1.32-3.66-1.7-4.7-3.03-9.4-6.06-14.1-9.08-.28-.26-.56-.51-.84-.77-7-5.87-14.1-11.65-20.34-18.33-44.21-47.34-73.02-102.79-87.14-165.94-.14-.4-.28-.79-.42-1.19-.25-1.29-.5-2.59-.75-3.88.07-.15.22-.32.19-.45-.08-.3-.24-.58-.37-.87-.57-4.21-1.13-8.41-1.7-12.62.34-.56-.13-.69-.48-.88v-29.82c-1.49.52-1.65,1.78-2.11,2.75-14.38,30.11-28.61,60.29-43.16,90.32-4.99,10.31-9.36,20.61-8.08,32.38.59,5.45,1.36,10.88,2.04,16.32-.49-.65-1.31-1.25-1.41-1.95-1.51-10.12-2.23-20.27-.33-30.43.44-2.35,1.03-4.61-2-5.66,2.59-1.92,4.2-4.51,5.58-7.41,18.37-38.73,36.76-77.45,55.27-116.11,10.3-21.52,30.44-27.22,53.93-15.74,21.71,10.61,38.91,26.68,54.17,44.91,32.91,39.31,56.22,83.81,70.19,133.12,2.46,8.68,5.97,17.33,4.71,26.75-.19,1.4,2.12,1.65,1.64,3.26-.16.11-.33.19-.52.24-.62,0-1.25.02-1.87.03-.91-5.05-1.66-10.14-2.77-15.14-6.18-27.91-16.32-54.37-29.38-79.74-17.25-33.52-38-64.48-66.28-89.84-12.73-11.42-26.56-21.08-43.46-25.49-13.58-3.55-26.33.62-34,11.7-6.28,9.06-9.27,19.68-9.74,30.3-.44,9.91-1.07,19.97,1.12,30.09,2.14,9.87,3.33,20.02,6.03,29.77,15.35,55.39,41.62,104.91,80.76,147.21,14.31,15.46,30.36,28.96,50.79,36,19.62,6.76,35.43.34,43.24-17.8,2.08-4.83,3.29-10.03,4.91-15.07l.34-.14.35.11c-.52.93.16,1.51.62,2.16-1.4,9.19-4.51,17.65-10.63,24.82-.35.31-.69.62-1.04.93l-.04.02c-.26.23-.51.46-.77.69.2.16.4.33.6.49Z"/>
  <path class="cls-14" d="M68.31,213.75c-3.02-.14-6.08-.07-8.61-2.17-1.53-4.16-5.16-1.84-7.81-2.53-.96-.15-1.91-.29-2.87-.44-5.04-.42-10.07-.85-15.11-1.27-.5-1.21-2.16-2.15-.89-3.78-1.72-4.99-3.34-10.01-5.2-14.94-.65-1.71-1.3.69-2.09.32-1.11-.98-.79-2.21-.62-3.42,1.93-4.86,3.87-9.72,5.8-14.59,0,0-.07.07-.07.07,1.26.47,2.14-.27,3.1-.9,4.24-2.81,8.85-4.64,13.93-5.15,5.33.2,10.71-2.39,15.99.27.26,2.62,3.76,3.82,3.05,6.88,3.24,6.31,8.23,11.21,13.15,16.16,8.75,10.32,18.76,19.39,28.71,28.49.56.51,1.31,1.08,2.11.23,0,0-.04-.04-.04-.04-.77,2.47,2.38,2.7,2.63,4.63-.87.83-2.66-.27-3.17,1.4h.1c-8.45-6.36-19.11-5.67-28.55-8.91-3.85-1.64-8.01-1.7-12.04-2.41-2.1-.37-1.6.97-1.52,2.1Z"/>
  <path class="cls-14" d="M632.68,524.9c-.2.01-.39-.01-.58-.08-2.56-1.89-4.47,1.67-7.09.75-3.84-1.34-7.6-.3-11.23,1.22-1-1.7-1.87-3.48-3.01-5.08-8.4-11.76-17.98-22.5-28.3-32.58-7.25-7.08-14.74-13.92-22.61-21.34,2.02.15,3.32.25,4.62.35,0,0,.11-.16.11-.16.04.75.52.82,1.11.72,5.66,1.05,10.7,4.37,16.62,4.48,2.63.61,5.35.98,7.88,1.88,9.93,3.55,20.41,3.79,30.67,5.36,3.51,1.24,7.22,1.39,10.82,1.15,4.16-.27,6.97,1.2,8.87,4.76,1.28,2.92,1.35,6.65,5.26,7.81-.02.39-.05.78-.07,1.18-1.86,1.49-.2,3.12.06,4.5,2.28,12.21.14,16.85-10.73,22.33-1.22.61-2.46,1.05-2.37,2.73Z"/>
  <path class="cls-9" d="M333.68,558.83c1.07-3.65,1.74-7.1,3.09-10.26,2.91-6.82,2.67-13.4-.04-20.23-1.24-3.13-4-7.63-2.06-9.61,1.9-1.94,6.6.59,9.53,2.05,9.31,4.63,17.72.72,26.39-1.77,1.28-.37,2.88-1.74,4.09-.46,1,1.05-.02,2.53-.53,3.73-4.73,11.1-4.65,22.13.23,33.18.67,1.52,1.92,4.95-1.88,3.21-12.49-5.72-24.69-4.59-36.97.32-.27.11-.64-.04-1.84-.15Z"/>
  <path class="cls-2" d="M145.65,127.56c-4.15,2.35-7.79,5.7-12.91,6.09-10.24.78-16.47-4.76-20.95-13.12-.04-.88-.08-1.76-.11-2.64-1.31-9.26,2.42-16.9,10.15-20.76,7.69-3.84,16.71-2.5,22.55,3.35,5.94,5.96,7.19,14.77,3.27,23.02-.35.74-.62,1.51-.93,2.27-.35.59-.71,1.18-1.06,1.77Z"/>
  <path class="cls-16" d="M298.75,176.95c3.03,1.06,2.44,3.31,2,5.66-1.9,10.16-1.19,20.31.33,30.43.11.7.92,1.3,1.41,1.95.09.65.18,1.31.27,1.96-.11.11-.34.28-.32.32.12.24.3.45.46.66.29.6.69,1.16.85,1.79,5.94,22.77,17.02,42.8,32.59,60.31,8.35,9.39,17.67,17.61,30.85,19.66,5.57.87,11.07,2.12,16.61,3.2-3.39,2.81-6.88-.86-10.3.15-9.55-1.76-17.22,4.17-25.8,6.37-3.64.93-7.13,2.43-10.69,3.67-.43.17-.86.33-1.29.5-.55.19-1.1.38-1.65.57-.58-.22-1.05-.1-1.38.46,0,0-.24.12-.24.12-1.72.02-2.51,1-2.71,2.6-5.66-.66-11.27,1.91-12.19,5.6-1.56-1.47-2.66-3.76-5.45-3.02,5.24-1.99,10.46-4.04,15.73-5.96,11.02-4,22.07-7.93,33.92-12.18-24.07-11.02-37.78-30.59-49.04-52.23-11.3-21.72-18.09-44.48-13.3-70.01-1.78,1.14-3.05,1.87-4.23,2.71-19.48,13.9-39.02,27.71-58.39,41.77-9.39,6.82-19.49,12.71-27.87,20.88-.16-.8-.32-1.61-1.18-2,5.43-6.68,13.29-10.26,19.84-15.51,3.22-2.58,6.85-4.66,10.1-7.21,1.3-1.02,3.53-1.43,3.42-3.79.3-.29.59-.59.89-.88.63.05,1.27.1,1.9.16.52.27.83.2.79-.47,14.09-10.02,28.18-20.03,42.25-30.09,1.45-1.04,3.23-1.87,3.58-3.94,0,0,.02-.05.02-.05,1.4-.51,3.18-.18,4.03-1.87,1.39-.77,2.77-1.54,4.16-2.31Z"/>
  <path class="cls-16" d="M623.25,363.43c-26.65.21-48.54-21.29-48.69-47.82-.15-27.28,21.45-49.18,48.86-49.52,26.37-.33,48.48,21.44,48.68,47.93.21,27.3-21.43,49.19-48.85,49.41ZM669.64,314.78c0-25.4-20.7-46.16-45.98-46.14-25.83.02-46.83,20.94-46.76,46.57.08,25.42,20.68,45.85,46.2,45.81,25.59-.03,46.54-20.85,46.54-46.24Z"/>
  <path class="cls-2" d="M491.66,538.65c-6.6-.08-12.52-6.07-12.4-12.55.13-6.88,5.63-12.3,12.49-12.32,7.06-.02,12.8,5.75,12.63,12.71-.17,6.67-6,12.25-12.72,12.16Z"/>
  <path class="cls-10" d="M373.51,303.05c3.42-1.02,6.91,2.65,10.3-.15,8.3.36,16.31,2.52,24.45,3.88,15.3,2.55,30.56,5.33,45.83,8.01-1.65.27-3.31.53-4.97.8,0,0,.13.04.13.04-.18.12-.36.25-.53.38-4.33-.56-8.66-1.12-13.43-1.73,1.13,3.71,5.11,3.86,6.43,6.59h-.01c-.92-.35-1.99-.52-2.75-1.09-13.6-10.29-30.27-9.66-45.83-12.94-1.12-.24-2.21-.64-3.32-.96-.12-1.8-1.38-2.05-2.76-1.84-1.02.15-.52.89-.3,1.45-4.47-.53-8.96-.94-13.25-2.42Z"/>
  <path class="cls-4" d="M196.9,345.19c0,.8.02,1.61.03,2.41-1.47-.21-2.95-.69-4.4-.59-14.68.96-22.63-7.91-28.72-19.52-1.07-2.04-1.94-4.19-3.95-5.55.07-.98,1.5-1.66.63-2.85-.36-1.25-.73-2.5-1.09-3.76-.1-.49-.19-.97-.29-1.46-1.33-5.29-.41-10.07,2.6-14.69,2.97-4.58,5.46-9.47,8.16-14.23-.2,1.77,1.72,2.51,1.96,4.06-4.96,4.28-7,10.43-10.08,15.91-.91,1.62-.89,3.54-.65,5.37,1.36,10.34,5.76,19.25,12.58,27.07,3.84,4.4,8.61,6.51,14.42,6.61,2.97.05,5.98.11,8.82,1.21Z"/>
  <path class="cls-6" d="M564.48,468.16c-1.3-.1-2.6-.2-4.62-.35,7.87,7.41,15.36,14.26,22.61,21.34,10.32,10.08,19.9,20.82,28.3,32.58,1.14,1.6,2.02,3.38,3.01,5.08-.02.31-.09.61-.2.89-.34.1-.68.21-1.02.31-3.27-.34-6.53-.67-9.8-1.01.01-.6.03-1.21.04-1.81,2.08-.32,4.99,1.41,6.09-.5,1.29-2.25-1.51-4.06-2.82-5.8-13.68-18.26-30.2-33.78-47.16-48.88-.47-.42-.8-1.01-1.2-1.52.33-1.15.66-2.3.99-3.45,2.22-.09,4.13.95,6.1,1.73-.11.46-.22.93-.32,1.39Z"/>
  <path class="cls-6" d="M50.87,299.04c9.68,8.32,19.2,16.83,29.08,24.92,10.52,8.61,21.39,16.8,32.07,25.23,1.59,1.25,3.83,2.06,4.02,5.05-5.91-3.29-10.74-7.54-15.8-11.41-15.98-12.19-31.44-25.01-46.29-38.56-1.18-1.08-2.72-1.95-3.16-3.7.03-.52.06-1.03.09-1.54Z"/>
  <path class="cls-6" d="M614.64,453.15c-17.09-17.37-35.28-33.49-54.28-48.73-2.64-2.12-5.83-3.63-7.78-6.56.73-.1,1.46-.2,2.19-.3,20.63,15.8,40.15,32.87,58.43,51.34.68.69,1.14,1.6,1.7,2.41-.09.62-.17,1.23-.26,1.85Z"/>
  <path class="cls-6" d="M263.87,447.89c-7.6-2.03-13.97-6.55-20.61-10.44-14.7-8.61-29.23-17.5-43.81-26.31-.97-.58-1.75-1.47-2.61-2.22.01-.43.03-.86.04-1.3,10.13,5.99,20.24,12,30.38,17.96,8.58,5.05,17.11,10.18,25.82,15,3.84,2.13,6.11,6.44,10.73,7.36,0,0,.06-.06.06-.06Z"/>
  <path class="cls-6" d="M598.75,369.25c-19.28-15.58-38.96-30.65-59.06-45.16.04-.44.08-.89.13-1.33,6.45,2.43,11.3,7.28,16.72,11.23,14.84,10.79,29.45,21.88,43.3,33.94-.36.44-.72.89-1.09,1.33Z"/>
  <path class="cls-6" d="M470.77,338.84c6.04,2.03,10.73,6.32,15.92,9.73,15.81,10.38,31.51,20.94,46.34,32.72-.09.57-.18,1.15-.27,1.72-20.43-14.67-41.11-28.97-62.07-42.87.03-.43.06-.87.08-1.3Z"/>
  <path class="cls-13" d="M137.24,367.73c19.79,13.21,39.58,26.42,59.36,39.63-.38.31-.75.61-1.13.92-20.67-12.49-40.85-25.71-60.26-40.09.68-.15,1.35-.31,2.02-.46Z"/>
  <path class="cls-13" d="M44.87,220.95c3.78,2.19,5.86,6.02,8.68,9.12,13.56,14.86,28.29,28.48,43.42,41.69-.12.62-.24,1.25-.36,1.87-17.87-14.72-34.7-30.53-49.58-48.32-.98-1.17-3.31-2.01-2.17-4.36Z"/>
  <path class="cls-6" d="M397,353.81c14.45,7.86,28.16,16.93,42.07,25.68,4.5,2.83,8.93,5.77,13.37,8.7.58.39,1.7.76.91,1.82-.54.72-1.03.71-1.97.07-18.14-12.33-37.01-23.51-55.6-35.13.41-.38.81-.76,1.22-1.15Z"/>
  <path class="cls-13" d="M329.76,317.34c.19-1.6.99-2.58,2.71-2.6-1.3,2.82,1.29,2.83,2.67,3.6,17.88,9.93,35.92,19.59,53.34,30.34-.72.18-1.43.35-2.15.53-18.86-10.62-37.71-21.25-56.57-31.87Z"/>
  <path class="cls-6" d="M33.91,207.35c5.04.42,10.07.85,15.11,1.27-.02.51-.04,1.03-.06,1.54h-10.04c.57,4.48,5.42,6.51,5.96,10.81-4.3-1.06-5.01-5.48-7.52-8.21-1.23-1.34-1.88-2.92-4.14-2.86-7.96.22-15.78.81-22.96,4.87-3.02,1.71-5.02,4.21-6.98,6.87-.17-.72-.34-1.44-.51-2.16,3.16-6.8,9.79-8.16,15.99-10.22,4.93-1.64,10.16-.85,15.16-1.91Z"/>
  <path class="cls-13" d="M666.4,473.55c7.08-6.96,6.34-15.09,3.37-23.45-3.76-10.57-10.74-19.22-17.12-28.22.7,0,1.39,0,2.09,0,7.71,9.43,14.58,19.35,18.13,31.2,2.74,9.15.91,16.24-5.63,21.6l-.84-1.13Z"/>
  <path class="cls-11" d="M524.79,507.83c10.94,3.03,21.86,6.12,32.82,9.07,5.34,1.44,10.76,2.63,16.14,3.93,0,.68,0,1.36,0,2.04-17.12-3.38-34.01-7.6-50.4-13.67.48-.46.96-.92,1.44-1.37Z"/>
  <path class="cls-11" d="M111.67,117.9c.04.88.08,1.76.11,2.64-14.96-1.89-29.92-2.68-44.92-.35-.35-.4-.7-.79-1.06-1.19,9.77-3.58,19.87-3.23,30-2.47,5.29.39,10.57.92,15.86,1.38Z"/>
  <path class="cls-5" d="M312.76,474.08c5.53.94,9.92,4.43,14.76,6.84,8.86,4.42,18.12,8.12,26.37,13.73-.03.45-.06.91-.09,1.36-13.34-5.71-25.99-12.82-39.01-19.16-.85-.42-1.91-.69-1.97-1.94-.06-.28-.07-.56-.05-.84Z"/>
  <path class="cls-1" d="M494.88,417.27c11.96,8.55,24.03,16.97,35.15,26.64-.26.24-.36.53-.31.87-.78-.24-1.73-.28-2.31-.76-11.76-9.64-24.8-17.61-36.12-27.82,0,0,.21.08.21.08,0,0,.03-.11.03-.11.65,1.8,2.09,1.17,3.35,1.1Z"/>
  <path class="cls-6" d="M5.06,245.12c.96.89,2.25,1.6,2.84,2.69,6.37,11.94,15.43,21.86,24.05,32.12-.58.05-1.16.11-1.73.16-10.49-10.25-19.55-21.55-25.6-35.05,0,0,.45.08.45.08Z"/>
  <path class="cls-5" d="M524.79,507.83c-.48.46-.96.92-1.44,1.37-13.19-3.49-25.92-8.29-38.61-13.24,0-.43,0-.86,0-1.29,8.88,1.45,17.08,5.1,25.27,8.46,4.85,1.99,10.24,1.93,14.76,4.69Z"/>
  <path class="cls-11" d="M620.86,480.44c-10.26-1.57-20.74-1.81-30.67-5.36-2.53-.9-5.25-1.27-7.88-1.88.5-.47.99-.94,1.49-1.41,3.14,0,5.97,1.31,8.91,2.12.37.98.83.86,1.33.1,8.91,1.66,17.83,3.33,26.74,4.99.03.48.05.96.08,1.44Z"/>
  <path class="cls-1" d="M632.68,524.9c-.08-1.68,1.16-2.11,2.37-2.73,10.87-5.47,13.01-10.11,10.73-22.33-.26-1.38-1.92-3.01-.06-4.5,8.01,11.43,1.38,26.46-13.05,29.55Z"/>
  <path class="cls-13" d="M377.25,447.52c10.83,5.25,22.05,9.72,32.51,15.75,0,0,.03-.07.03-.07-1.66,1-3.26.33-4.71-.37-10.07-4.84-20.11-9.76-30.16-14.65.78-.22,1.55-.43,2.33-.65Z"/>
  <path class="cls-12" d="M536.73,564.08c9.64,2.16,19.52,3.13,29.03,5.95,1,.57,2.01,1.15,3.01,1.72-10.82-1.17-21.59-2.6-31.99-5.98-.02-.56-.03-1.12-.05-1.69Z"/>
  <path class="cls-5" d="M63.88,165.22c-5.29-2.66-10.66-.07-15.99-.27,0-.63.01-1.27.02-1.9,3.19-1.41,6.66-.78,9.97-1.33,1.01-.16,2.01-.32,3.02-.47.55.77.98,1.99,2.17,1.57,5.37-1.9,10.59-.14,15.86.49-.01.53-.02,1.06-.03,1.59-5,.36-10.03-.68-15.02.32Z"/>
  <path class="cls-11" d="M473.81,546.46c1.94-1.25,3.83-.64,5.64.25,7.44,3.69,15.98,4.28,23.3,8.27.02.47.05.94.07,1.4-9.88-2.7-19.82-5.22-28.98-10.02,0,0-.03.09-.03.09Z"/>
  <path class="cls-1" d="M441.72,320.86c10.07,3.56,18.15,10.53,27.14,15.95.54.32.6,1.42.89,2.16,0,0,.08-.08.08-.08-9.93-5.13-19.59-10.69-28.11-18.02,0,0,0-.01,0-.01Z"/>
  <path class="cls-1" d="M391.81,513.77c-9.44-4.29-18.88-8.58-28.31-12.87l.72-1.62c9.31,3.93,18.61,7.9,27.57,12.67.01.61.02,1.21.03,1.82Z"/>
  <path class="cls-12" d="M573.76,522.87c0-.68,0-1.36,0-2.04,7.24,1.35,14.48,2.7,21.73,4.05,2.43.45,4.92-.71,7.32.3-.01.6-.03,1.21-.04,1.81-9.86-.02-19.4-2.29-29.01-4.11Z"/>
  <path class="cls-13" d="M421.24,526.34c-9.27-4.02-18.54-8.03-27.8-12.05.33-.37.66-.75.99-1.12,9.65,4.17,19.3,8.34,28.95,12.51-.71.22-1.42.44-2.13.66Z"/>
  <path class="cls-13" d="M620.86,480.44c-.03-.48-.05-.96-.08-1.44,4.13.26,8.26.44,12.38.81,2.7.25,2.67-1.04,1.95-2.92,0,0-.11.06-.11.06,4.77,3.93,10.24,3.03,15.69,2.26.01.57.03,1.14.04,1.7-2.79.24-5.59.71-8.38.66-2.94-.05-1.63,1.52-1.36,2.79-.15.66-.3,1.33-.45,1.99-1.9-3.55-4.71-5.03-8.87-4.76-3.6.23-7.31.08-10.82-1.15Z"/>
  <path class="cls-9" d="M541.85,245.98c.62,0,1.25-.02,1.87-.03.34,1-.62,2.43.98,3.03.12.66.24,1.31.35,1.97.59,3.29-1.55,6.82.89,9.94.08,1.05.16,2.09.24,3.14,0,3.95,0,7.9,0,11.85-.09,1.04-.18,2.09-.27,3.13-2.04,1.21-.75,3.15-1,4.74-.23,1.46.85,3.23-1.16,4.2l-.35-.11s-.34.14-.34.14c-.14-.78-.52-1.59-.4-2.33,2.14-13.27,1.02-26.47-.82-39.66Z"/>
  <path class="cls-11" d="M579.67,571.01c5.88.23,11.76-.66,17.67.7,3.19.74,6.39-.92,9.4-2.27,0,0-.04-.09-.04-.09-.18,1.47-.94,2.49-2.43,2.72-8.79,1.37-17.59,2.78-26.46.57.62-.55,1.24-1.09,1.86-1.64Z"/>
  <path class="cls-13" d="M78.9,164.9c.01-.53.02-1.06.03-1.59,9.38,1.13,18.68,2.76,27.88,4.91.02.54.05,1.08.07,1.63-9.33-1.65-18.66-3.29-27.98-4.94Z"/>
  <path class="cls-12" d="M106.88,169.83c-.02-.54-.05-1.08-.07-1.63,8.79,1.77,17.53,3.78,26,6.77-1.12,2.71-3.3,1.04-4.6.69-5.66-1.55-11.63-2.19-16.88-4.99-1.5-.8-3.3,1.02-4.45-.84Z"/>
  <path class="cls-5" d="M249.4,378.83c7.53,3.55,14.74,7.63,21.53,12.46-.03.53-.06,1.07-.09,1.6-8-4.2-15.83-8.68-23.3-13.77.62-.09,1.24-.19,1.86-.28Z"/>
  <path class="cls-1" d="M96.61,273.63c.12-.62.24-1.25.36-1.87,6.85,5.52,13.69,11.03,20.53,16.55.55.45.89.95.34,1.63-4.62-.65-7.02-4.64-10.41-7.09-3.83-2.77-7.23-6.12-10.82-9.22Z"/>
  <path class="cls-7" d="M30.21,280.08c.58-.05,1.16-.11,1.73-.16,5.75,5.9,11.49,11.81,17.24,17.71-.28.31-.56.63-.84.94-6.65-5.57-12.84-11.59-18.13-18.49Z"/>
  <path class="cls-5" d="M433.75,530.22c7.81,1.42,14.67,5.41,21.99,8.12.02.46.04.93.06,1.39-7.79-1.41-14.76-5.07-21.94-8.14-.04-.46-.08-.92-.12-1.38Z"/>
  <path class="cls-15" d="M598.75,369.25c.36-.44.72-.89,1.09-1.33,5.35,3.19,10.94,6.15,12.8,12.82-6.16-2.05-9.4-7.51-13.89-11.49Z"/>
  <path class="cls-14" d="M491.49,416.27s-.21-.08-.21-.08c-6.93-1.26-11.44-6.3-16.5-10.51.25-.21.45-.47.6-.77,6.16,1.08,10.18,5.99,15.44,8.69.88.45.95,1.64.66,2.66Z"/>
  <path class="cls-12" d="M511.78,450.86c-7.23-2.04-14.08-5.07-21.01-7.92,0-.68,0-1.36,0-2.04,6.84,3.17,14.35,4.6,21.02,8.18,0,.59,0,1.18-.01,1.77Z"/>
  <path class="cls-12" d="M436.8,419.88c-6.92-3.02-13.85-6.04-20.77-9.06-.12-2.6,1.39-2.17,2.87-1.46,6.41,3.08,12.8,6.21,19.2,9.33-.44.4-.87.8-1.31,1.2Z"/>
  <path class="cls-6" d="M548.86,463.64c-3.77-.88-7.48-1.94-10.93-3.75,2.81-2.91,5.09.99,7.7.61.56.39,1.42.61,1.58-.03.19-.78-.64-1.25-1.46-1.37-2.24-2.09-4.49-4.18-6.73-6.27.58-.13,1.17-.25,1.75-.38,3.31,2.1,6.35,4.54,8.97,7.47-1.44.97-.41,2.53-.89,3.72Z"/>
  <path class="cls-5" d="M51.21,140.92c-2.25-7.15.37-12.76,5.57-17.55.31.54.63,1.08.94,1.62-4.25,4.51-5.81,9.93-5.34,16.02-.39-.03-.78-.06-1.17-.09Z"/>
  <path class="cls-11" d="M612.56,528c.34-.1.68-.21,1.02-.31.64.04,1.27.07,1.91.11,1.85,4.15,3.64,8.33,5.58,12.43.86,1.82,1.65,3.61,1.57,5.66-.58,0-1.16-.01-1.74-.02-2.01-6.32-5.27-12.06-8.34-17.88Z"/>
  <path class="cls-1" d="M281.87,458.5c-6.55-2.6-13.04-5.31-18-10.61,0,0-.06.06-.06.06,6.45,2.13,12.33,5.38,17.96,9.12.03.48.07.95.1,1.43Z"/>
  <path class="cls-12" d="M152.87,182.92c-5.03-1.43-10.09-2.77-15.08-4.34-1.71-.54-4.19-.63-3.81-3.56,6.27,2.13,12.88,3.2,18.89,6.13,0,.59,0,1.17,0,1.76Z"/>
  <path class="cls-5" d="M502.82,556.39c-.02-.47-.05-.94-.07-1.4,6.28.78,12.17,2.97,18.08,5.1.39.2.78.4,1.17.6,0,0,.06-.14.06-.14-.1.48-.2.96-.31,1.44-6.38-1.63-12.89-2.84-18.93-5.59Z"/>
  <path class="cls-1" d="M532.76,383c.09-.57.18-1.14.27-1.72,5.85,3.94,11.68,7.92,16.96,12.63-.1.73-.54,1.14-1.23,1.31-5.33-4.07-10.66-8.15-15.99-12.22Z"/>
  <path class="cls-1" d="M413.87,408.19c-7.12-1.56-13.68-4.25-19.1-9.3,7.06,1.68,13.44,4.75,19.1,9.3Z"/>
  <path class="cls-1" d="M137.24,367.73c-.67.15-1.35.31-2.02.46-5.02-2.79-9.64-6.1-13.55-10.39,5.93,2.16,10.64,6.22,15.57,9.93Z"/>
  <path class="cls-1" d="M207.14,145.72c6.25.97,11.81,3.54,16.68,7.8-5.68-2.14-11.35-4.28-17.03-6.43.12-.46.23-.92.35-1.37Z"/>
  <path class="cls-15" d="M240.66,158.51c-.15,1.37-1.23,1.66-2.17,1.36-3.13-.99-6.22-2.11-9.27-3.33-.94-.38-1.44-1.36-1.12-2.48.21-.75.83-1.01,1.53-.91,3.97.52,6.98,3.37,10.72,4.48.17.05.21.58.3.88Z"/>
  <path class="cls-12" d="M455.81,539.73c-.02-.46-.04-.93-.06-1.39,5.78,3.24,13.26,2.7,18.06,8.12,0,0,.03-.09.03-.09-6.34-1.33-12.56-2.98-18.03-6.64Z"/>
  <path class="cls-12" d="M583.8,471.79c-.5.47-.99.94-1.49,1.41-5.91-.11-10.96-3.43-16.62-4.48-.37-.24-.74-.48-1.11-.72,0,0-.11.16-.11.16.11-.46.22-.93.32-1.39,6.33,1.68,12.66,3.35,18.99,5.03Z"/>
  <path class="cls-12" d="M161.98,130.23c3.6,1.01,7.22,1.97,10.81,3.04,1.49.45,3.39.52,3.57,2.74,0,0,.1-.07.1-.07-5.83-.65-11.56-1.59-16.55-5,0,0-.07.07-.07.07.89.22,1.72.27,2.15-.78Z"/>
  <path class="cls-12" d="M205.47,200.7c-6.96.26-12.26-3.43-17.45-7.37,2.34.53,4.67,1.08,6.62,2.6.09.7.39,1.01,1.1.62,3.46.88,7.22,1.03,9.73,4.15Z"/>
  <path class="cls-5" d="M650.73,480.92c-.01-.57-.03-1.14-.04-1.7,5.02-.9,9.68-2.88,14.39-4.72.33.33.65.67.98,1-4.43,3.72-9.72,5.01-15.32,5.42Z"/>
  <path class="cls-14" d="M540.77,452.44c-.58.13-1.17.25-1.75.38-4.33-1.26-7.77-3.54-9.3-8.04-.05-.35.05-.64.31-.87,3.84,2.52,8.91,3.5,10.75,8.53Z"/>
  <path class="cls-12" d="M615.49,527.8c-.63-.04-1.27-.07-1.91-.11.11-.29.18-.59.2-.9,3.63-1.52,7.39-2.56,11.23-1.22,2.62.91,4.53-2.64,7.09-.75-5.16,3.11-10.93,2.79-16.61,2.98Z"/>
  <path class="cls-7" d="M627.37,394.65c-5.05-3.5-8.57-8.68-13.29-12.6,5.78,2.54,9.92,7.17,14.25,11.54-.32.35-.64.71-.96,1.06Z"/>
  <path class="cls-12" d="M47.91,163.04c0,.63-.01,1.27-.02,1.9-5.09.52-9.7,2.35-13.93,5.15-.96.64-1.84,1.37-3.1.9.67-3.44,3.51-4.02,6.24-4.75.54.72.68.34.74-.27,3.02-2.15,6.47-2.78,10.07-2.94Z"/>
  <path class="cls-6" d="M160.49,319.09c.88,1.19-.55,1.87-.63,2.85-4.9-2.24-8.76-6.02-13.16-8.99,1.83-2.57,3,0,4.28.66,3.25,1.68,5.4,5.27,9.51,5.49Z"/>
  <path class="cls-13" d="M2.76,219.48c.17.72.34,1.44.51,2.16-1.71,3.99-.91,8.23-1.2,12.36,0,0,.11-.08.11-.08-3.1-3.11-2.88-8.77.58-14.44Z"/>
  <path class="cls-13" d="M249.4,378.83c-.62.09-1.24.19-1.86.28-5.06-2.96-10.49-5.32-14.96-9.24,6.68.97,11.73,5,16.82,8.96Z"/>
  <path class="cls-12" d="M536.79,459.91c-5.06-2.13-10.68-2.72-15.43-5.7.46-.4.91-.81,1.37-1.21,3.56,1.14,7.12,2.26,10.67,3.41,1.75.56,3.44,1.19,3.39,3.5Z"/>
  <path class="cls-6" d="M266.97,169.3c5.44,2.39,10.87,4.78,16.31,7.17-.32.43-.65.86-.97,1.29-5.25-2.05-10.6-3.89-15.46-6.82.04-.54.08-1.09.12-1.63Z"/>
  <path class="cls-12" d="M484.76,494.68c0,.43,0,.86,0,1.29-4.83-1.76-9.66-3.51-14.49-5.27-.01-.48-.03-.97-.05-1.45,5.1,1.14,10.33,1.92,14.55,5.43Z"/>
  <path class="cls-5" d="M25.74,188.94c.79.37,1.44-2.03,2.09-.32,1.87,4.93,3.48,9.96,5.2,14.94-.26-.24-.51-.48-.77-.72.07-1.67-1.13-1.81-2.34-1.95-1.39-3.99-2.78-7.97-4.18-11.96Z"/>
  <path class="cls-1" d="M51.21,140.92c.39.03.78.06,1.17.09,1.81,5.35,3.61,10.69,5.42,16.04,0,0,.07-.07.07-.07-5.34-4.06-6.26-9.95-6.65-16.05Z"/>
  <path class="cls-12" d="M620.9,545.88c.58,0,1.16.01,1.74.02,1.42,3.98,1.86,7.95-.1,11.89-.57-.3-1.13-.6-1.7-.9.85-3.66-.11-7.34.06-11.01Z"/>
  <path class="cls-15" d="M654.74,421.88c-.7,0-1.39,0-2.09,0-2.77-1.59-4.83-3.79-5.89-6.85.11-.71.21-1.42.32-2.13,4.02,1.75,6.21,5.05,7.66,8.98Z"/>
  <path class="cls-10" d="M548.86,463.64c.48-1.2-.55-2.76.89-3.72,2.73,2.15,5.33,4.53,8.95,5.12-.33,1.15-.66,2.3-.99,3.45-2.65-2.16-5.32-4.3-8.86-4.85Z"/>
  <path class="cls-5" d="M30.93,170.94c-1.93,4.86-3.87,9.73-5.8,14.59.04-3.83.22-7.67,2.02-11.14.79-1.53,1.43-3.51,3.78-3.45Z"/>
  <path class="cls-6" d="M130.88,299.95c4.85,1.95,9.22,4.53,12.03,9.16-4.87-1.93-9.07-4.73-12.03-9.16Z"/>
  <path class="cls-13" d="M614.64,453.15c.09-.62.17-1.23.26-1.85,3.8,3.17,7.01,6.85,9.46,11.28-4.01-2.32-6.79-5.95-9.71-9.43Z"/>
  <path class="cls-5" d="M606.7,569.35s.04.09.04.09c3.66-2.42,8.35-3.17,11.19-6.78-1.8,5.85-4.46,7.45-11.22,6.69Z"/>
  <path class="cls-5" d="M638.59,406.14c-3.74-3.83-7.48-7.66-11.22-11.49.32-.35.64-.71.96-1.06,4.24,3.34,7.93,7.21,11.38,11.34-.37.4-.75.81-1.12,1.21Z"/>
  <path class="cls-12" d="M457.79,428.9c-4.78-1.13-9.05-3.4-13.26-5.82.4-.35.81-.71,1.21-1.06,3.97,1.94,8.47,2.68,12.13,5.32-.03.52-.06,1.04-.08,1.56Z"/>
  <path class="cls-12" d="M433.75,530.22c.04.46.08.92.12,1.38-4.18-1.83-8.8-2.59-12.63-5.26.71-.22,1.42-.44,2.13-.66,3.77.81,7.4,1.93,10.38,4.54Z"/>
  <path class="cls-1" d="M483.81,438.33c-5.17,1.31-9-2.47-13.53-3.58-.23-.63-.45-1.27-.68-1.9,5.17.73,9.71,3.04,14.17,5.57,0,0,.05-.09.05-.09Z"/>
  <path class="cls-12" d="M177.17,188.92c-.26.57-.61,1.65-.75,1.62-4.18-.84-8.74-.89-11.51-4.98,0,0-.04.1-.04.1,4.41-.07,8.17,2.26,12.3,3.26Z"/>
  <path class="cls-5" d="M475.39,404.92c-.15.3-.35.55-.6.77-2.89-3.09-8.18-3.6-9.82-9.15,4.1,2.82,8.3,4.3,10.42,8.39Z"/>
  <path class="cls-1" d="M521.75,561.98c.1-.48.2-.96.31-1.44,5.09.37,9.8,2.3,14.67,3.54.02.56.03,1.12.05,1.69-5.11-.85-10.18-1.88-15.03-3.79Z"/>
  <path class="cls-5" d="M422.24,469.87c5.44-.73,9.48,2.63,13.94,4.76-.45.37-.89.74-1.34,1.12-4.28-1.79-8.93-2.78-12.6-5.88Z"/>
  <path class="cls-5" d="M164.87,185.66s.04-.1.04-.1c-4.38.83-8.21-.9-12.04-2.63,0-.59,0-1.17,0-1.76,4.13,1.15,8.56,1.49,12,4.49Z"/>
  <path class="cls-1" d="M216.57,206.11c-3.56-1.23-7.55-1.51-10.19-4.72,4.42-.74,7.76,2.03,11.48,3.54-.43.39-.86.79-1.29,1.18Z"/>
  <path class="cls-6" d="M312.76,474.08c-.02.28,0,.56.05.84-4.37-.84-7.95-3.18-11.34-5.9.61-.15,1.23-.29,1.84-.44,3.17,1.79,7.04,2.4,9.45,5.5Z"/>
  <path class="cls-12" d="M118.95,289.75c3.03,2.69,7.58,3.73,8.96,8.22-4.34-.94-6.86-4.51-10.14-6.99.39-.41.79-.82,1.18-1.23Z"/>
  <path class="cls-6" d="M334.46,372.08c-1.53-1.6-1.55-3.37-.55-5.24,3.55,1.48,7.5,2.29,9.74,5.92-2.14-.66-4.27-1.32-6.41-1.97-.87-.4-1.84-2.49-2.55.13-.07.39-.15.77-.22,1.16Z"/>
  <path class="cls-6" d="M455.76,483.89c4.75-.07,9,1.04,12.03,5.07-4.32-.95-8.6-2.01-12.03-5.07Z"/>
  <path class="cls-5" d="M281.87,458.5c-.03-.48-.07-.95-.1-1.43,3.67,1.57,7.22,3.33,10.08,6.29-3.91-.47-7.18-2.18-9.98-4.87Z"/>
  <path class="cls-5" d="M231.89,211.99c-3.56.04-6.44-2.05-9.67-3.06-1.45-.46-1.32-1.66-1.14-2.83,3.52,2.12,8.44,1.64,10.8,5.89Z"/>
  <path class="cls-7" d="M374.84,388.93c-4.69-.67-8.8-2.49-12.05-6.04,4.82.4,8.65,2.8,12.05,6.04Z"/>
  <path class="cls-12" d="M147.85,126.27c3.83.96,7.67,1.92,11.5,2.88.16.62.32,1.25.48,1.87,0,0,.07-.07.07-.07-.65,0-1.3,0-1.96,0-.43-1.08-.96-.9-1.54-.12-2.84-.84-5.68-1.68-8.52-2.52-.01-.68-.03-1.36-.04-2.05Z"/>
  <path class="cls-5" d="M354.78,378.27c-4.54.19-7.92-2.03-10.82-5.23,4.29.36,7.9,2.09,10.78,5.31,0,0,.04-.07.04-.07Z"/>
  <path class="cls-14" d="M462.54,397.21c-2.13-1.12-4.05-1.98-5.8-3.1-1.06-.68-1.27-2.1-.72-3.1.91-1.65,1.88-.26,2.75.29,2.03,1.28,4.48,2.28,3.77,5.91Z"/>
  <path class="cls-1" d="M409.79,463.2s-.03.07-.03.07c2.22,1.74,5.17,1.43,7.53,2.66,1.33.69,3.5.66,3.51,2.99-4.39-.52-8.44-1.69-11-5.72Z"/>
  <path class="cls-5" d="M2.18,233.91s-.11.08-.11.08c1.37,3.61,3.88,6.91,3,11.12,0,0-.46-.09-.46-.08-2.36-3.37-4.21-6.84-2.44-11.12Z"/>
  <path class="cls-1" d="M635,476.95s.11-.06.11-.06c-3.66-1.47-4.17-5.71-7-7.92.54-.28,1.08-.56,1.62-.84,2.02,2.78,5.73,4.56,5.27,8.82Z"/>
  <path class="cls-5" d="M386.33,349.21c.72-.18,1.43-.35,2.15-.53,3.1,1.28,6.02,2.86,8.53,5.13-.41.38-.81.76-1.22,1.15-3.22-1.81-6.72-3.14-9.46-5.74Z"/>
  <path class="cls-1" d="M358.61,443.01c-1.57-1.32-.83-2.88-.47-4.4,3.83.94,7.46,2.24,10.16,5.33-3.12.96-5.07-2.22-7.92-2.22-.37-.19-.73-.38-1.09-.57-.08.25-.16.5-.24.75-.14.37-.29.74-.43,1.11Z"/>
  <path class="cls-1" d="M522.73,452.99c-.46.4-.91.81-1.37,1.21-3.4-.54-6.52-1.86-9.58-3.35,0-.59,0-1.18.01-1.77,3.84.77,7.36,2.41,10.94,3.91Z"/>
  <path class="cls-12" d="M394.84,398.94c-3.88-.67-7.88-1.11-10.06-5.13.18,0,.36.02.54.05,3.64.81,7.09,1.99,9.51,5.08Z"/>
  <path class="cls-6" d="M457.79,428.9c.03-.52.06-1.04.08-1.56,3.46,1.81,7.9,1.69,10.43,5.33-.27-.05-.44.07-.51.34-3.67-.55-6.87-2.24-10-4.11Z"/>
  <path class="cls-5" d="M281.93,397.63c3.6,1.45,7.44,2.51,9.69,6.1-3.99-.14-6.93-2.4-9.79-4.81.03-.43.07-.86.1-1.29Z"/>
  <path class="cls-12" d="M303.32,468.58c-.61.15-1.23.29-1.84.44-3.1-.27-5.55-1.88-7.71-4.21,3.72-.27,6.69,1.59,9.55,3.77Z"/>
  <path class="cls-11" d="M176.46,135.95s-.1.06-.1.07c3.52-.58,6.77-.06,9.55,2.36,0,.49,0,.99,0,1.48-3.23-1.11-6.97-.98-9.45-3.91Z"/>
  <path class="cls-5" d="M385.32,393.86c-.18-.03-.36-.04-.54-.05-3.87-.49-7.71-1.03-9.94-4.87,4.22.09,7.25,2.73,10.49,4.93Z"/>
  <path class="cls-7" d="M647.08,412.9c-.11.71-.21,1.42-.32,2.13-2.59-2.85-5.18-5.7-7.77-8.55.38-.31.75-.61,1.13-.92,2.72,2.07,4.81,4.72,6.96,7.33Z"/>
  <path class="cls-7" d="M307.78,412.9c1.98-1.22,3.25.51,4.66,1.26,2.03,1.08,1.59-.44,1.77-1.42,2.31,1.17.99,3.48,1.62,5.17-2.77-1.53-6.11-2.15-8.05-5.01Z"/>
  <path class="cls-6" d="M256.44,166.38c-3.31-.66-6.34-1.95-9.03-4.04,3.93-.74,6.96,1.28,10.04,3.14-.34.3-.67.6-1.01.9Z"/>
  <path class="cls-1" d="M640.54,486.35c.15-.66.3-1.32.45-1.99,2.51,2.82,3.83,6.23,4.8,9.8-3.9-1.16-3.98-4.89-5.26-7.81Z"/>
  <path class="cls-5" d="M539.82,322.76c-.04.44-.08.89-.13,1.33-2.77-1.91-5.85-3.38-8.19-5.88.65-.13,1.31-.26,1.96-.4,2.61,1.01,5.01,2.3,6.35,4.94Z"/>
  <path class="cls-12" d="M207.14,145.72c-.12.46-.23.92-.35,1.37-3-1.09-6-2.19-9-3.28.01-.58.02-1.17.03-1.75,2.89.51,5.76,1.09,8.02,3.18.39.2.77.41,1.16.61l.14-.13Z"/>
  <path class="cls-1" d="M353.79,496.01c.03-.45.06-.91.09-1.36,3.56.26,6.33,2.12,8.9,4.49-3.49.34-6.19-1.55-9-3.12Z"/>
  <path class="cls-1" d="M445.73,422.02c-.4.35-.81.71-1.21,1.06-2.87-.35-5.22-1.97-7.72-3.21.44-.4.87-.8,1.31-1.2,2.73.69,5.35,1.62,7.63,3.35Z"/>
  <path class="cls-1" d="M292.07,404.13c3.63.29,6.78,1.44,8.73,4.79-3.69-.18-6.54-1.88-8.73-4.79Z"/>
  <path class="cls-1" d="M242.03,215.51c-.3.29-.59.59-.89.88-3.01-.53-5.7-1.85-8.34-3.32,0-.42.02-.84.03-1.26,3.54.07,6.49,1.59,9.21,3.7Z"/>
  <path class="cls-1" d="M202.89,347.97c.66,2.9,5.55,2.78,4.77,6.7-2.06-2.05-5.32-2.52-6.89-5.22.1-1.36.84-1.81,2.12-1.48Z"/>
  <path class="cls-1" d="M434.85,475.75c.45-.37.89-.74,1.34-1.12,2.77.52,5.25,1.75,7.66,3.14-.12.46-.25.92-.37,1.39-3.17-.4-5.95-1.78-8.63-3.41Z"/>
  <path class="cls-14" d="M543.76,287.94c2-.97.93-2.74,1.16-4.2.25-1.59-1.04-3.53,1-4.74,1.53,3.98,1.38,7.74-1.54,11.1-.46-.65-1.13-1.23-.62-2.16Z"/>
  <path class="cls-13" d="M271.79,392.92c3.94.01,7.12,1.4,9.04,5.03-3.65-.54-6.47-2.55-9.04-5.03Z"/>
  <path class="cls-14" d="M545.95,260.88c-2.44-3.12-.3-6.65-.89-9.94,3.28,3.04,1.72,6.52.89,9.94Z"/>
  <path class="cls-5" d="M223.8,363.39c3.32,1,6.82,1.76,8.08,5.68-3.11-1.3-6.83-1.74-8.08-5.68Z"/>
  <path class="cls-15" d="M65.81,118.99c.35.4.7.79,1.06,1.19-.13,1.16-.81,1.76-1.93,1.91-1.3.18-3.07,1.97-3.73-.32-.62-2.17,1.3-2.69,3.11-2.78.5-.02,1,0,1.49,0Z"/>
  <path class="cls-11" d="M266.97,169.3c-.04.54-.08,1.09-.12,1.63-2.72-.62-5.43-1.27-8.44-3.95,3.87-.65,6.23.75,8.56,2.32Z"/>
  <path class="cls-5" d="M483.81,438.33s-.05.09-.05.09c2.44.54,4.9,1.03,7.02,2.48,0,.68,0,1.36,0,2.04-2.46-1.32-6.23-.67-6.97-4.6Z"/>
  <path class="cls-11" d="M377.25,447.52c-.78.22-1.55.43-2.33.65-2.17-.93-5.46-.49-5.26-4.31,2.66.95,5.34,1.85,7.58,3.66Z"/>
  <path class="cls-11" d="M354.78,378.27s-.04.08-.04.07c2.69,1.5,6.66.72,8.04,4.53-3.5-.09-6.45-1.13-8-4.61Z"/>
  <path class="cls-7" d="M579.67,571.01c-.62.55-1.24,1.09-1.86,1.64-3.01-.3-6.02-.59-9.03-.89-1-.57-2.01-1.15-3.01-1.72,4.64.32,9.27.65,13.91.97Z"/>
  <path class="cls-14" d="M629.73,468.13c-.54.28-1.08.56-1.62.84-1.96-.68-2.8-2.2-2.95-4.14-.02-.24.71-.81,1.03-.76,2.31.33,3.39,1.81,3.54,4.07Z"/>
  <path class="cls-1" d="M290.55,181.12s-.02.05-.02.05c-2.74-.21-5.06-1.5-7.33-2.89.53-.39,1.07-.79,1.6-1.18,1.86.68,3.72,1.35,5.58,2.02.06.67.11,1.34.17,2Z"/>
  <path class="cls-12" d="M443.48,479.16c.12-.46.25-.92.37-1.39,2.02.83,4.03,1.65,6.05,2.48-.06.6-.12,1.2-.18,1.8-1.83-.35-3.59-.86-4.91-2.29-.39-.25-.78-.51-1.17-.76l-.15.15Z"/>
  <path class="cls-14" d="M546.19,275.87c0-3.95,0-7.9,0-11.85.96,3.95.95,7.9,0,11.85Z"/>
  <path class="cls-7" d="M195.23,142.64c-2.42-.2-4.6-1.13-6.71-2.27.27-.32.54-.65.81-.97,2.47.18,4.69,1.16,6.92,2.14-.34.37-.67.73-1.01,1.1Z"/>
  <path class="cls-5" d="M304.8,409.96c1.3.67,3.38.55,2.99,2.94-1.89.49-3.12-.81-4.53-1.64.51-.43,1.03-.87,1.54-1.3Z"/>
  <path class="cls-5" d="M620.84,556.89c.57.3,1.13.6,1.7.9-.22,1.35-.06,3.68-2.02,2.92-1.78-.69.42-2.47.33-3.82Z"/>
  <path class="cls-1" d="M304.8,409.96c-.51.43-1.03.87-1.54,1.3-.96-.63-2.67-.46-2.44-2.33,1.64-.87,2.78.19,3.98,1.03Z"/>
  <path class="cls-15" d="M60.9,161.24c-1.01.16-2.01.32-3.02.47.15-1.17.3-2.34.45-3.5.29,0,.54.1.76.29,1.17.54,1.72,1.49,1.81,2.74Z"/>
  <path class="cls-15" d="M57.72,124.99c-.31-.54-.62-1.08-.94-1.62.61-1.21,1.85-2.36,2.75-1.18,1.01,1.31.1,2.69-1.81,2.81Z"/>
  <path class="cls-16" d="M386.75,305.47c-.22-.56-.72-1.3.3-1.45,1.38-.21,2.63.05,2.76,1.84-1.02-.13-2.04-.26-3.05-.4Z"/>
  <path class="cls-15" d="M548.76,395.22c.69-.17,1.13-.58,1.23-1.31,1.24.08,1.76.81,1.78,1.99,0,0-.02.03-.02.03-1.14.38-2.52,1.76-2.99-.7Z"/>
  <path class="cls-6" d="M245.86,160.7c-1.52,2.3-2.01.31-2.75-.66.17-.24.17-.47-.02-.7.52.2,1.04.4,1.56.6.05.82.45,1.07,1.21.76Z"/>
  <path class="cls-12" d="M127.83,297.9c1.29.31,2.96.04,3.09,2.08-1.34-.23-2.84-.23-3.09-2.08Z"/>
  <path class="cls-14" d="M544.7,248.98c-1.6-.6-.64-2.02-.98-3.03.19-.05.36-.13.52-.24,1.6.89,2.02,1.94.46,3.27Z"/>
  <path class="cls-12" d="M183.57,191.98c-.94,3.04-1.8.89-2.67-.04l-.07.07c.81.03,1.69.33,2.22-.62.2.17.37.37.51.6Z"/>
  <path class="cls-15" d="M554.76,397.55c-.73.1-1.46.2-2.19.3-.28-.64-.55-1.28-.83-1.92,0,0,.02-.02.02-.03,1.28.04,2.71-.2,2.99,1.65Z"/>
  <path class="cls-6" d="M449.71,482.06c.06-.6.12-1.2.18-1.8.98.88,3.52.05,2.9,2.66-1.18.26-2.21-.01-3.08-.86Z"/>
  <path class="cls-5" d="M216.57,206.11c.43-.39.86-.79,1.29-1.18.65.34,1.3.69,1.94,1.03-1.02,1.3-2.11,1.17-3.23.15Z"/>
  <path class="cls-15" d="M290.55,181.12c-.05-.67-.11-1.34-.17-2,1.4.05,2.8.09,4.2.14-.85,1.68-2.64,1.35-4.03,1.87Z"/>
  <path class="cls-5" d="M147.85,126.27c.01.68.03,1.36.04,2.05-.75-.25-1.49-.5-2.24-.75.35-.59.71-1.18,1.06-1.77.38.16.76.32,1.14.48Z"/>
  <path class="cls-1" d="M59.09,158.49c-.22-.18-.47-.28-.76-.29-.15-.41-.31-.83-.46-1.24,0,0-.07.07-.07.08.91.05,1.22.64,1.29,1.45Z"/>
  <path class="cls-14" d="M29.92,200.9c1.21.14,2.41.28,2.34,1.95-1.45.16-2.3-.4-2.34-1.95Z"/>
  <path class="cls-15" d="M159.83,131.02c-.16-.62-.32-1.25-.48-1.87,1.09-.15,2.06-.02,2.64,1.08-.43,1.05-1.26,1-2.15.78Z"/>
  <path class="cls-12" d="M180.9,191.94c-.76-.1-1.52-.19-2.27-.29.5-.5,1.01-1.01,1.52-1.51,0,0,.29-.03.29-.03.13.63.26,1.26.4,1.89l.07-.07Z"/>
  <path class="cls-13" d="M391.81,513.77c-.01-.61-.02-1.21-.03-1.82,1.08-.04,1.98.32,2.64,1.21-.33.37-.66.74-.99,1.12-.54-.17-1.08-.34-1.63-.51Z"/>
  <path class="cls-15" d="M180.83,192c-.13-.63-.26-1.26-.4-1.89,1.14-.14,2.09.13,2.62,1.27-.53.95-1.41.66-2.22.62Z"/>
  <path class="cls-7" d="M197.82,142.06c-.01.58-.02,1.17-.03,1.75-1.02-.01-1.91-.32-2.55-1.17.34-.37.67-.73,1.01-1.1.52.17,1.05.35,1.57.52Z"/>
  <path class="cls-14" d="M467.79,433.01c.07-.27.24-.38.51-.34.43.06.86.12,1.3.18.23.63.45,1.27.68,1.9-1.36.18-2.35-.18-2.49-1.74Z"/>
  <path class="cls-14" d="M545.75,459.09c.82.13,1.64.59,1.46,1.37-.15.64-1.02.43-1.58.03.04-.47.08-.94.12-1.41Z"/>
  <path class="cls-7" d="M185.91,139.86c0-.49,0-.99,0-1.48,1.3-.17,2.45.13,3.43,1.03-.27.32-.54.65-.81.97-.87-.17-1.74-.35-2.62-.52Z"/>
  <path class="cls-6" d="M452.75,482.89c1.56-1.27,2.63-1.09,3.05,1.02-1.2.2-2.44.53-3.05-1.02Z"/>
  <path class="cls-10" d="M449.14,315.61c.86.35,1.73.7,2.59,1.04-1.09.19-2.09-.04-3.01-.66.18-.13.36-.25.53-.38,0,0-.11-.01-.11-.01Z"/>
  <path class="cls-14" d="M494.88,417.27c-1.26.07-2.71.7-3.35-1.1,1.33-.29,2.62-.46,3.35,1.1Z"/>
  <path class="cls-15" d="M243.09,159.34c.19.23.2.46.02.7-.51-.23-1.07-.41-.91-1.16.29.15.59.31.88.46Z"/>
  <path class="cls-6" d="M284.8,177.09c-.53.39-1.07.79-1.6,1.18-.3-.17-.59-.35-.89-.52.32-.43.64-.86.97-1.29.51.21,1.02.41,1.52.62Z"/>
  <path class="cls-1" d="M197.8,347.98c1-.31,1.57.22,2,1.02-.98.27-1.39-.56-2-1.02Z"/>
  <path class="cls-15" d="M320.86,432.81c.53.17.68.49.42.99-.14-.33-.28-.66-.42-.99Z"/>
  <path class="cls-15" d="M321.83,435.89c.57.1.71.44.55.96-.18-.32-.37-.64-.55-.96Z"/>
  <path class="cls-15" d="M359.05,441.9c.08-.25.16-.5.24-.75.36.19.73.38,1.09.57-.44.06-.89.12-1.33.18Z"/>
  <path class="cls-5" d="M232.82,211.81c0,.42-.02.84-.03,1.26-.6-.15-1.03-.44-.99-1.14.34-.04.68-.08,1.02-.12Z"/>
  <path class="cls-15" d="M325.89,447.71c.59.19.67.6.47,1.12-.16-.37-.31-.74-.47-1.12Z"/>
  <path class="cls-15" d="M245.86,160.7c-.76.31-1.16.07-1.21-.76.4.25.81.5,1.21.76Z"/>
  <path class="cls-15" d="M195.74,196.55c-.7.4-1.01.08-1.1-.62.36.2.73.41,1.1.62Z"/>
  <path class="cls-7" d="M50.87,299.04c-.03.51-.06,1.03-.09,1.54-.45-.39-.9-.78-1.35-1.17.28-.28.57-.56.85-.84.3.02.5.18.59.47Z"/>
  <path class="cls-15" d="M351.82,461.89c.34-.26.68-.53,1.02-.79-.34.26-.68.53-1.02.79Z"/>
  <path class="cls-6" d="M257.45,165.48c.43.48.81,1.02.07,1.46-.19.11-.71-.35-1.08-.55.34-.3.67-.6,1.01-.9Z"/>
  <path class="cls-14" d="M37.84,165.98c-.06.61-.2.99-.74.27.23-.15.48-.23.74-.27Z"/>
  <path class="cls-1" d="M207,145.85c-.39-.2-.77-.41-1.16-.61.67-.33,1.06-.15,1.16.61Z"/>
  <path class="cls-1" d="M420.77,468.89c1.16-.63,1.25.38,1.57,1.03-.78.05-1.57.1-1.57-1.03Z"/>
  <path class="cls-15" d="M156.41,130.84c.58-.78,1.11-.96,1.54.12-.51-.04-1.03-.08-1.54-.12Z"/>
  <path class="cls-13" d="M667.24,474.68c-.4.27-.79.54-1.19.81-.32-.33-.65-.66-.97-1,.44-.32.88-.63,1.32-.94l.84,1.13Z"/>
  <path class="cls-6" d="M333.89,366.84c-.7.15-1.09-.12-1.13-.84.38.28.75.56,1.13.84Z"/>
  <path class="cls-7" d="M49.42,299.41c-.36-.28-.72-.56-1.08-.84.28-.31.56-.62.84-.94.36.31.73.62,1.09.94-.28.28-.57.56-.85.84Z"/>
  <path class="cls-6" d="M331.48,363.07c-.58-.29-.75-.72-.48-1.32.62.27.77.72.48,1.32Z"/>
  <path class="cls-5" d="M222.81,361.88c.36.4.72.79,1.09,1.19-.36-.39-.72-.79-1.09-1.19Z"/>
  <path class="cls-1" d="M443.63,479.01c.39.25.78.51,1.17.76-.7.23-1.08-.04-1.17-.76Z"/>
  <path class="cls-13" d="M332.71,314.62c.32-.56.79-.68,1.38-.46-.46.15-.92.31-1.38.46Z"/>
  <path class="cls-5" d="M221.9,361.9c.33.02.66.03.99.05-.33-.02-.66-.03-.99-.05Z"/>
  <path class="cls-13" d="M335.73,313.59c.43-.17.86-.33,1.29-.5-.43.17-.86.33-1.29.5Z"/>
  <path class="cls-6" d="M330.37,360.1c-.58-.31-.66-.76-.39-1.32.53.32.71.75.39,1.32Z"/>
  <path class="cls-6" d="M329.74,357.98c-.65-.21-.88-.63-.64-1.29.61.23.84.65.64,1.29Z"/>
  <path class="cls-1" d="M210.02,355.99c.29.2.6.22.92.06l-.05-.06c-.31.08-.47.28-.49.59-.01-.28-.14-.48-.38-.6Z"/>
  <path class="cls-1" d="M208.27,355.34s0,.09,0,.09c0,0,0-.09,0-.09Z"/>
  <path class="cls-13" d="M270.84,392.89c.03-.53.06-1.06.09-1.6.66.36,1.81.45.92,1.66-.34-.02-.67-.04-1.01-.07Z"/>
  <path class="cls-14" d="M327.72,351.17c-.19-.4-.38-.8-.56-1.2.19.4.38.8.56,1.2Z"/>
  <path class="cls-5" d="M532.71,315.85c.35-.31.69-.62,1.04-.93-.11.57-.38.97-1.04.93Z"/>
  <path class="cls-14" d="M326.74,348.14c-.15-.38-.3-.76-.46-1.13.15.38.3.76.46,1.13Z"/>
  <path class="cls-14" d="M324.83,342.85c-.52-.08-.7-.34-.44-.83.26.22.4.49.44.83Z"/>
  <path class="cls-13" d="M281.93,397.63c-.03.43-.07.86-.1,1.29-.73.07-1.17-.16-1.03-1,.38-.1.76-.19,1.13-.29Z"/>
  <path class="cls-1" d="M470.77,338.84c-.03.43-.06.86-.08,1.3-.58-.21-1.07-.48-.87-1.24,0,0-.08.08-.08.08.34-.04.69-.09,1.03-.13Z"/>
  <path class="cls-1" d="M118.95,289.75c-.39.41-.79.82-1.18,1.23-.07-.24-.17-.47-.18-.71,0-.1.18-.21.28-.32.36-.07.72-.14,1.08-.21Z"/>
  <path class="cls-14" d="M328.78,354c-.54-.15-.77-.48-.63-1.04.21.35.42.69.63,1.04Z"/>
  <path class="cls-7" d="M638.59,406.14c.37-.4.75-.81,1.12-1.21.25.14.39.35.42.64-.38.31-.75.61-1.13.92-.21-.03-.35-.14-.41-.34Z"/>
  <path class="cls-5" d="M532.5,317.05c-.2-.16-.4-.33-.6-.49.26-.23.51-.46.77-.69-.1.25-.22.5-.28.76-.03.12.07.28.11.42Z"/>
  <path class="cls-13" d="M196.88,407.62c-.01.43-.03.86-.04,1.3-.64.18-1.07-.09-1.37-.64.37-.31.75-.61,1.13-.92,0,0,.28.26.28.26Z"/>
  <path class="cls-1" d="M522,560.68c-.39-.2-.78-.4-1.17-.6.6-.21.99-.02,1.17.6Z"/>
  <path class="cls-14" d="M319.81,327.94c-.55-.1-.64-.45-.48-.92.16.31.32.62.48.92Z"/>
  <path class="cls-1" d="M414.57,409.52c-.14-.25-.34-.36-.6-.33.15.21.35.32.6.33Z"/>
  <path class="cls-14" d="M318.79,325c-.2-.34-.39-.68-.59-1.03.2.34.39.68.59,1.03Z"/>
  <path class="cls-14" d="M594.04,474.01c-.5.76-.96.87-1.33-.1.44.03.89.07,1.33.1Z"/>
  <path class="cls-6" d="M336.51,378.07c-1.29-1.16-1.83-2.59-1.52-4.31,1.19,1.2,1.8,2.59,1.52,4.31Z"/>
  <path class="cls-1" d="M356.44,436.09c-1.14-.88-1.62-2.01-1.33-3.44,1.29.82,1.55,2.03,1.33,3.44Z"/>
  <path class="cls-6" d="M337.64,381.02c-.78-.48-1.14-1.14-.87-2.06.75.49,1.15,1.13.87,2.06Z"/>
  <path class="cls-14" d="M334.68,370.92c.72-2.62,1.68-.54,2.55-.13-.85.04-1.7.09-2.55.13Z"/>
  <path class="cls-1" d="M353.66,428c-.58-.26-.82-.66-.6-1.29.63.23.84.65.6,1.29Z"/>
  <path class="cls-1" d="M354.62,431.02c-.65-.22-.83-.66-.59-1.29.55.27.85.65.59,1.29Z"/>
  <path class="cls-8" d="M195.87,253.01c-.46,4.02-4.02,5.79-6.29,8.45-2.65,3.11-5.69,5.88-8.56,8.79-3.27.27-4.72-4.01-8.18-3.27,0,0-.02-.02-.02-.02.89-1.81-.91-2.17-1.73-2.76-13.69-10-27.15-20.29-40.16-31.15-.92-.77-1.79-1.51-3.11-1.08l.03.03c.15-.82-.18-1.16-1.01-1,0,0-.02-.01-.02-.01-.27-.65-.53-1.31-.8-1.96,6.18.8,11.88,3.28,17.8,4.99,2.32,1.48,4.99,1.92,7.59,2.55.4.01.8.03,1.19.05-.08-.37-.15-.75-.23-1.12.05-.19.05-.37,0-.56,1.46.11,3.28-.41,3.47,1.96-1.33,1.78.35,1.76,1.3,2.11,4.56,1.66,9.14,3.29,13.71,4.92,2.22.9,4.42,1.88,6.68,2.67,1.23.43,2.29.14,2.13-1.57,1.39-.08,2.14.55,2.19,1.96,1.92,3.66,5.84,3.64,9.08,4.75.96.33.96-.99.95-1.79,2.2-.11,3.85.49,3.98,3.07Z"/>
  <path class="cls-13" d="M110.9,216.97c-.8.85-1.55.29-2.11-.23-9.96-9.11-19.96-18.18-28.71-28.49.61-.1,1.21-.19,1.82-.29,9.14,8.9,18.28,17.79,27.39,26.7.66.65,1.75,1.07,1.61,2.3Z"/>
  <path class="cls-1" d="M81.9,187.96c-.6.1-1.21.19-1.82.29-4.93-4.94-9.91-9.84-13.15-16.16.99,0,1.9,0,2.66.93,4.07,5.01,8.2,9.96,12.31,14.94Z"/>
  <path class="cls-12" d="M143.84,234.02c-5.92-1.71-11.63-4.2-17.8-4.99-1.38-1.02-.95-1.69.42-2.18,6.73.47,12.49,4.01,18.79,5.87-.47.44-.93.87-1.4,1.31Z"/>
  <path class="cls-11" d="M170.86,243.92c-4.57-1.64-9.15-3.27-13.71-4.92-.94-.34-2.62-.33-1.3-2.11,5.56.13,9.94,3.64,15,5.19,0,.61,0,1.23,0,1.84Z"/>
  <path class="cls-13" d="M110.32,222.97c.51-1.67,2.3-.57,3.17-1.4-.25-1.94-3.4-2.16-2.63-4.63,2.87.54,4.21,3.03,6.1,4.81-.43,1.14-2.1,1.4-2.07,2.88-1.53-.55-3.05-1.1-4.58-1.65Z"/>
  <path class="cls-12" d="M170.86,243.92c0-.61,0-1.23,0-1.84,2.94.98,5.88,1.96,8.81,2.94.16,1.71-.9,2-2.13,1.57-2.26-.79-4.46-1.77-6.68-2.67Z"/>
  <path class="cls-5" d="M191.89,249.94c.02.8.02,2.12-.95,1.79-3.24-1.11-7.16-1.1-9.08-4.75,3.7-.22,6.64,2.12,10.03,2.96Z"/>
  <path class="cls-7" d="M114.9,224.62c-.04-1.48,1.64-1.73,2.07-2.88,1.63,1.08,3.26,2.16,4.89,3.24-.02.73-.04,1.47-.06,2.2-2.3-.86-4.6-1.71-6.9-2.57Z"/>
  <path class="cls-6" d="M121.8,227.19c.02-.73.04-1.47.06-2.2,1.61.42,3.42.35,4.6,1.86-1.37.49-1.8,1.16-.42,2.18.27.65.53,1.31.8,1.96-2.77.19-4.08-1.57-5.04-3.8Z"/>
  <path class="cls-5" d="M143.84,234.02c.47-.43.93-.87,1.4-1.31,2.38.74,4.77,1.48,7.15,2.22.05.19.05.37,0,.56-.32.36-.64.72-.96,1.08-2.6-.64-5.27-1.08-7.59-2.55Z"/>
  <path class="cls-6" d="M127.83,231.97c1.31-.43,2.18.31,3.11,1.08,13.01,10.87,26.47,21.16,40.16,31.15.82.6,2.62.95,1.73,2.76-6.15-2.33-10.72-7.01-15.81-10.86-9.14-6.92-18.13-14.04-27.11-21.16-.9-.71-2.52-1.21-2.07-2.97Z"/>
  <path class="cls-11" d="M81.87,214.06c9.43,3.24,20.09,2.55,28.55,8.92-1.05-.05-2.1-.1-3.16-.15-.95-.91-1.59-2.46-3.38-1.57-5.2-1.15-10.39-2.29-15.59-3.44-1.12-.59-1.64-3.04-3.57-1.15-.95-.26-1.91-.53-2.86-.79,0-.61,0-1.22,0-1.83Z"/>
  <path class="cls-12" d="M81.87,214.06c0,.61,0,1.22,0,1.83-4.52-.71-9.05-1.42-13.57-2.14-.08-1.12-.58-2.47,1.52-2.1,4.03.71,8.19.77,12.04,2.41Z"/>
  <path class="cls-6" d="M172.84,266.98c3.46-.74,4.91,3.54,8.18,3.27-.94.97-1.87,1.94-2.81,2.91-.33-3.33-4.75-3.11-5.37-6.19Z"/>
  <path class="cls-6" d="M51.89,209.05c2.65.69,6.28-1.63,7.81,2.53-2.71-.3-5.42-.6-8.13-.9.11-.54.21-1.08.32-1.63Z"/>
  <path class="cls-14" d="M103.89,221.26c1.78-.89,2.43.66,3.38,1.57-1.4.07-2.98.54-3.38-1.57Z"/>
  <path class="cls-14" d="M84.73,216.67c1.92-1.89,2.44.57,3.57,1.15-1.35.12-2.74.36-3.57-1.15Z"/>
  <path class="cls-1" d="M51.89,209.05c-.11.54-.21,1.08-.32,1.63-.87-.17-1.74-.35-2.61-.52.02-.51.04-1.03.06-1.54.96.14,1.91.29,2.87.44Z"/>
  <path class="cls-6" d="M159.11,313.87c.1.49.19.97.29,1.46-.1-.49-.19-.97-.29-1.46Z"/>
  <path class="cls-6" d="M126.86,231c.82-.16,1.16.17,1.01,1-.93.27-1.57.24-1.01-1Z"/>
  <path class="cls-14" d="M514.78,44.23c0-5.42,2.24-9.68,6.92-12.41,4.47-2.61,8.94-2.12,13.09.86,1.69,1.21,2.72,1.61,4.51-.3,4.66-4.97,10.37-5.7,15.68-2.58,5.26,3.09,7.95,9.68,6.5,15.9-1.75,7.53-7.15,12.71-12.24,17.8-8.89,8.91-5.48,9.87-16.86,2.02-4.5-3.1-9.11-6.06-12.86-10.14-2.92-3.18-4.73-6.77-4.73-11.16Z"/>
  <path class="cls-9" d="M675.07,46.74c-.01,5.42-4.75,8.74-9.77,7.15-1.65-.52-2.95-2.12-5.06-1.02-3.67,1.91-7.57,3.41-11.16,5.47-1.55.89-.26,2.19.85,2.49,5.28,1.41,9.86,6.25,16.23,2.36,2.99-1.83,7.51,1.22,8.55,4.77,1.11,3.8-.7,7.57-4.3,8.98-3.68,1.44-7.86-.43-9.44-4.22-2.16-5.19-11.84-8.94-17.1-6.65-3.26,1.42-6.28.97-8.61-1.73-2.47-2.87-2.57-6.14-.29-9.16,2.14-2.83,5.1-3.55,8.47-2.34,5.66,2.04,15.19-2.52,17.49-8.2,1.5-3.68,4.41-5.3,8.39-4.62,3.95.67,5.36,3.48,5.75,6.73Z"/>
  <path class="cls-8" d="M627.87,173.43c0-2.24.86-3.51,3.35-2.81,11.8,3.33,23.61,6.6,35.37,10.06,2.83.83,2.6,2.87.57,4.44-9.58,7.39-19.24,14.69-28.88,22.01-2.12,1.61-3.91,1.29-4.43-1.39-2.08-10.74-3.99-21.51-5.97-32.31Z"/>
  <path class="cls-2" d="M208.94,244.9c8.38-8.17,18.48-14.06,27.87-20.88,19.37-14.05,38.91-27.87,58.39-41.77,1.18-.84,2.44-1.57,4.23-2.71-4.79,25.53,2,48.28,13.3,70.01,11.26,21.65,24.97,41.21,49.04,52.23-11.85,4.25-22.9,8.17-33.92,12.18-5.27,1.91-10.49,3.97-15.73,5.96-.5.19-.99.38-1.49.57-.65-.33-1.12-.08-1.51.46-6.78,2.39-13.57,4.78-20.35,7.17-.78-.18-1.38.07-1.77.79-.42.12-.84.24-1.25.37-2.04.65-4.06,1.36-6.13,1.93-7.95,2.19-15.19,6.78-23.72,7.03-9.98-2.44-16.66-9.55-22.69-17.02-13.12-16.24-22.5-34.43-25.92-55.26-1.16-7.07-1.38-14.22,1.65-21.04Z"/>
  <path class="cls-16" d="M255.91,338.22c8.52-.25,15.77-4.84,23.72-7.03,2.06-.57,4.09-1.28,6.13-1.93-.61.81-.5,1.58.11,2.33-2.28,1.77-8.33-.08-5.94,6.18-2.59-2.41-5.31-2.48-8.56-1.1-3.74,1.59-7.72,2.62-11.59,3.89-.27-2.46-2.99-.87-3.86-2.34Z"/>
  <path class="cls-8" d="M279.92,337.77c-2.39-6.26,3.66-4.41,5.94-6.18,2.6,3.39,3.54,7.18,2.78,11.39-3.16-1.31-6.73-1.94-8.72-5.21Z"/>
  <path class="cls-16" d="M309.12,320.95c.39-.54.86-.79,1.51-.46-.5.15-1.01.31-1.51.46Z"/>
  <path class="cls-16" d="M287.01,328.9c.39-.72.98-.97,1.77-.79-.41.66-1,.92-1.77.79Z"/>
  <path class="cls-8" d="M196.9,345.19c-2.84-1.1-5.85-1.15-8.82-1.21-5.81-.1-10.58-2.21-14.42-6.61-6.82-7.82-11.22-16.74-12.58-27.07-.24-1.83-.26-3.76.65-5.37,3.08-5.47,5.12-11.62,10.08-15.91,1.83,22.13,11.34,40.35,27.96,54.94.03.37.06.74.1,1.1-.99.04-1.98.08-2.98.12Z"/>
  <path class="cls-4" d="M199.88,345.06c-.03-.37-.06-.74-.1-1.1.88-.06,1.83.07,1.5,1.2-.22.75-.98.72-1.4-.1Z"/>
  <path class="cls-1" d="M210.94,356.05c.05-.28.09-.56.14-.84-.01.13-.01.26-.04.38-.03.14-.1.27-.15.4,0,0,.05.06.05.06Z"/>
  <path class="cls-14" d="M541.85,245.98c1.84,13.19,2.96,26.38.82,39.66-.12.74.26,1.55.4,2.33-1.61,5.03-2.83,10.23-4.91,15.07-7.81,18.15-23.62,24.56-43.24,17.8-20.44-7.04-36.48-20.54-50.79-36-39.14-42.29-65.41-91.81-80.76-147.21-2.7-9.76-3.89-19.9-6.03-29.77-2.19-10.12-1.56-20.18-1.12-30.09.48-10.63,3.47-21.24,9.74-30.3,7.67-11.08,20.42-15.25,34-11.7,16.9,4.42,30.73,14.07,43.46,25.49,28.28,25.36,49.03,56.33,66.28,89.84,13.06,25.37,23.21,51.83,29.38,79.74,1.11,5.01,1.85,10.09,2.77,15.14ZM530.91,283.48c.14-.48.28-.96.42-1.44.19-.57.38-1.15.57-1.72.18-.77.35-1.54.53-2.3.16-.87.32-1.75.48-2.62.6-.7.74-1.51.56-2.39.49-5.71,1.77-11.38.76-17.16-.07-.52-.15-1.05-.22-1.57l.17-.36-.24-.31c.74-.75.43-1.47-.06-2.19.23-3.21.07-6.39-.59-9.54-.12-.51-.24-1.02-.36-1.53.31-1.91-.12-3.72-.71-5.51-.12-.7-.24-1.4-.36-2.11-.19-.96-.38-1.92-.57-2.88-.13-.78-.27-1.55-.4-2.33l-.55-2.64c-.15-.48-.29-.97-.44-1.45.07-1.22.15-2.45-.58-3.54l-.45-1.2c-1.35-5.27-2.44-10.61-4.08-15.79-10.41-32.87-25.66-63.34-45.85-91.31-.8-1.11-1.6-3.4-3.2-2.3-1.86,1.27.67,2.39,1.09,3.64.1.3.38.54.57.82,23.21,33.04,40.69,68.71,49.73,108.26.21.35.41.7.62,1.05.09.32.17.63.26.95.22.8.43,1.6.65,2.4.11.86.22,1.72.33,2.58l.59,1.65c.19,1.79.37,3.59.56,5.38.17.76.35,1.53.52,2.29.17,1.91.35,3.82.52,5.72.16,1.13.32,2.26.48,3.4.06,6.52.12,13.03.19,19.55-.46.64-.49,1.31-.15,2-.02.45-.05.9-.07,1.34-.67.75-.69,1.64-.54,2.57-.13.96-.26,1.92-.39,2.88-.19.7-.38,1.4-.57,2.11-1.24,3.78-2.48,7.57-3.72,11.35-8.44,13.45-16.89,17.6-30.42,15.34-8.21-1.37-15.55-4.8-22.43-9.15-19.84-12.55-35.14-29.77-49.04-48.39-.97-1.3-1.59-2.5-.61-4.02,5.08-3.97,10.26-7.83,15.21-11.95,3.77-3.14,8.31-5.43,11.11-9.69,4.03-2.32,4.75-6.33,4.61-10.33-.72-21.85-10.25-39.48-26.65-53.46-3.4-2.89-7.73-5.37-12.76-2.99-10.76,2.54-21.18,6.17-31.6,9.83-.41.14-.83.28-1.24.42-.47-.04-.93-.07-1.4-.11-8.79-25.62-15.59-51.56-12.2-79.03,1.16-9.38,3.84-18.31,10.52-25.36,7.99-8.43,21.38-9.81,34.88-4.04,13.21,5.65,24.21,14.41,34.55,24.15.88.83,1.8,2.7,3.18,1.41,1.52-1.41-.47-2.31-1.29-3.09-10.29-9.78-21.29-18.57-34.45-24.28-24.65-10.7-43.73-.6-49,25.64-2.5,12.43-2.32,24.84-.62,37.25,2.24,16.3,5.8,32.31,12.08,47.6.21.67.43,1.34.64,2,.13.27.27.54.4.81.09.38.19.76.28,1.15-.22.58-.05.99.54,1.21.24.61.48,1.22.71,1.82-.06.14-.2.32-.15.4.13.24.33.44.51.66.11.3.22.6.33.9l.58,1.24c9.21,24.63,21.71,47.48,36.96,68.86,10.55,16.02,23.14,30.25,37.78,42.63,10.19,8.61,21.1,16.09,34.21,19.64,16.14,4.37,30.46-1.71,36.25-15.31,1.54-2.29,2.76-4.71,3.03-7.51Z"/>
  <path class="cls-3" d="M454.09,314.79c-15.28-2.68-30.53-5.47-45.83-8.01-8.14-1.36-16.15-3.52-24.45-3.88-5.53-1.08-11.04-2.33-16.61-3.2-13.19-2.06-22.5-10.27-30.85-19.66-15.57-17.5-26.65-37.54-32.59-60.31-.16-.63-.56-1.2-.85-1.79-.05-.33-.1-.66-.15-.98-.09-.65-.18-1.31-.27-1.96-.69-5.44-1.45-10.87-2.04-16.32-1.29-11.78,3.09-22.08,8.08-32.38,14.54-30.03,28.78-60.21,43.16-90.32.46-.97.62-2.23,2.11-2.75v29.82c.16.29.32.59.48.88.57,4.21,1.13,8.41,1.7,12.62.06.44.13.88.19,1.31.25,1.29.5,2.59.75,3.88.14.4.28.79.42,1.19,14.12,63.15,42.93,118.6,87.14,165.94,6.24,6.68,13.34,12.47,20.34,18.33.28.26.56.51.84.77,4.7,3.03,9.4,6.06,14.1,9.08-.65.88-1.65.89-2.58,1.06-7.82-.18-15.31-2.73-23.07-3.33Z"/>
  <path class="cls-8" d="M477.16,318.11c.94-.17,1.94-.18,2.58-1.06.82.38,1.63.76,3.66,1.7-2.99.49-4.64.29-6.24-.64Z"/>
  <path class="cls-8" d="M354.27,103.92c-.16-.29-.32-.59-.48-.88.34.19.82.31.48.88Z"/>
  <path class="cls-8" d="M357.33,122.93c-.14-.4-.28-.79-.42-1.19.14.4.28.79.42,1.19Z"/>
  <path class="cls-8" d="M356.16,117.86c-.06-.44-.13-.88-.19-1.31.13.29.3.57.37.87.03.12-.12.3-.19.45Z"/>
  <polygon class="cls-8" points="449.14 315.61 449.25 315.62 449.12 315.58 449.14 315.61"/>
  <path class="cls-8" d="M465.65,307.97c-.28-.26-.56-.51-.84-.77.28.26.56.51.84.77Z"/>
  <path class="cls-6" d="M564.59,468c.37.24.74.48,1.11.72-.59.1-1.07.02-1.11-.72Z"/>
  <path class="cls-4" d="M302.76,216.95c.05.33.1.66.15.98-.16-.22-.34-.43-.46-.66-.02-.04.21-.21.32-.32Z"/>
  <path class="cls-1" d="M244.72,215.2c.04.67-.27.75-.79.47.26-.16.53-.31.79-.47Z"/>
  <path class="cls-2" d="M669.64,314.78c0,25.39-20.94,46.21-46.54,46.24-25.52.03-46.13-20.4-46.2-45.81-.08-25.63,20.92-46.55,46.76-46.57,25.29-.02,45.98,20.74,45.98,46.14ZM622.97,281.86c-15.75-.02-27.15,13.97-23.24,29.3,3.77,14.83,12.03,27.63,19.76,40.63,1.36,2.29,2.63,1.59,3.76,0,8.37-11.8,16.98-23.51,22.33-37.07,6.44-16.33-5.08-32.84-22.61-32.86Z"/>
  <path class="cls-5" d="M152.4,235.49c.08.37.15.75.23,1.12-.4-.02-.8-.03-1.19-.05.32-.36.64-.72.96-1.08Z"/>
  <path class="cls-9" d="M383.84,164.42c10.41-3.66,20.84-7.29,31.6-9.83-5.9,7.81-5.02,16.36-2.61,25,2.85,10.21,7.89,19.32,14.14,27.83,5.82,7.92,12.6,14.15,23.26,13.94-2.8,4.26-7.33,6.55-11.11,9.69-4.95,4.12-10.13,7.98-15.21,11.95-1.41.37-2.67,1.42-4.26,1.03-15.24-21.38-27.75-44.24-36.96-68.86.18-.59.02-1.02-.58-1.24-.11-.3-.22-.6-.33-.9.05-.14.17-.31.13-.4-.12-.24-.32-.44-.48-.66-.24-.61-.48-1.22-.71-1.82-.18-.4-.36-.81-.54-1.21-.09-.38-.19-.76-.28-1.15-.13-.27-.27-.54-.4-.81-.21-.67-.43-1.34-.64-2,.78-.08,1.56-.16,2.35-.24.47.04.93.07,1.4.11.54.22.97.12,1.24-.42Z"/>
  <path class="cls-2" d="M450.23,221.37c-10.66.2-17.44-6.02-23.26-13.94-6.25-8.51-11.3-17.63-14.14-27.83-2.41-8.63-3.29-17.19,2.61-25,5.03-2.39,9.36.09,12.76,2.99,16.4,13.98,25.93,31.62,26.65,53.46.13,4-.58,8-4.61,10.33Z"/>
  <path class="cls-10" d="M381.2,164.74c-.78.08-1.56.16-2.35.24-6.28-15.29-9.84-31.3-12.08-47.6-1.7-12.41-1.88-24.82.62-37.25,5.27-26.24,24.35-36.34,49-25.64,13.16,5.71,24.16,14.5,34.45,24.28.82.78,2.81,1.67,1.29,3.09-1.38,1.29-2.3-.58-3.18-1.41-10.34-9.74-21.35-18.5-34.55-24.15-13.5-5.77-26.89-4.4-34.88,4.04-6.68,7.05-9.36,15.99-10.52,25.36-3.39,27.48,3.41,53.42,12.2,79.03Z"/>
  <path class="cls-4" d="M529.32,219.89c.73,1.09.65,2.32.58,3.55.15.48.29.96.44,1.45.18.88.36,1.76.55,2.64.13.78.27,1.55.4,2.33.19.96.38,1.92.57,2.88.12.7.24,1.4.36,2.11.59,1.79,1.02,3.6.71,5.51.12.51.24,1.02.36,1.53.66,3.15.82,6.34.59,9.55.02.73.04,1.46.06,2.18l.24.31s-.17.36-.17.36c.07.52.15,1.05.22,1.57,1.01,5.78-.27,11.45-.76,17.16-.72.67-.68,1.52-.56,2.39-.16.87-.32,1.75-.48,2.62-.66.66-.64,1.47-.53,2.3-.19.57-.38,1.15-.57,1.72-.14.48-.28.96-.42,1.44-.26,2.81-1.49,5.22-3.03,7.51-.49-.59-.98-1.18-1.47-1.77,1.24-3.78,2.48-7.57,3.72-11.35.19-.7.38-1.4.57-2.11.13-.96.26-1.92.39-2.88.73-.74.64-1.65.54-2.57.02-.45.05-.9.07-1.34,1.01-.59,1.17-1.25.15-2-.06-6.52-.12-13.03-.19-19.55.07-1.17.36-2.36-.48-3.39-.17-1.91-.35-3.82-.52-5.72-.17-.76-.35-1.53-.52-2.29-.19-1.79-.37-3.59-.56-5.38-.2-.55-.39-1.1-.59-1.65-.11-.86-.22-1.72-.33-2.58.1-.89.14-1.76-.65-2.4-.09-.32-.17-.63-.26-.95-.21-.35-.41-.7-.62-1.05-9.04-39.55-26.52-75.22-49.73-108.26-.19-.27-.47-.51-.57-.82-.42-1.25-2.94-2.37-1.09-3.64,1.6-1.1,2.4,1.19,3.2,2.3,20.19,27.97,35.44,58.44,45.85,91.31,1.64,5.17,2.73,10.52,4.08,15.79.15.4.3.8.45,1.2Z"/>
  <path class="cls-10" d="M526.41,289.23c.49.59.98,1.18,1.47,1.77-5.79,13.6-20.11,19.67-36.25,15.31-13.11-3.55-24.02-11.02-34.21-19.64-14.64-12.38-27.23-26.61-37.78-42.63,1.6.39,2.85-.66,4.26-1.03-.98,1.52-.36,2.71.61,4.02,13.9,18.62,29.2,35.84,49.04,48.39,6.88,4.35,14.23,7.78,22.43,9.15,13.53,2.26,21.97-1.9,30.42-15.34Z"/>
  <path class="cls-10" d="M531.84,266.97c1.02.75.86,1.41-.15,2-.34-.7-.31-1.37.15-2Z"/>
  <path class="cls-10" d="M531.17,244.03c.85,1.03.56,2.23.48,3.39-.16-1.13-.32-2.26-.48-3.39Z"/>
  <path class="cls-10" d="M530.7,275.77c-.19.7-.38,1.4-.57,2.11.19-.7.38-1.4.57-2.11Z"/>
  <path class="cls-10" d="M532.9,275.39c-.12-.87-.16-1.72.56-2.39.18.88.04,1.69-.56,2.39Z"/>
  <path class="cls-10" d="M531.89,280.32c-.11-.83-.13-1.65.53-2.3-.18.77-.35,1.54-.53,2.3Z"/>
  <path class="cls-10" d="M531.29,229.85c-.13-.78-.27-1.55-.4-2.33.13.78.27,1.55.4,2.33Z"/>
  <path class="cls-10" d="M532.21,234.84c-.12-.7-.24-1.4-.36-2.11.12.7.24,1.4.36,2.11Z"/>
  <path class="cls-10" d="M527.99,224c.79.64.75,1.51.65,2.4-.22-.8-.43-1.6-.65-2.4Z"/>
  <path class="cls-10" d="M531.62,270.32c.1.91.2,1.83-.54,2.57-.16-.93-.13-1.81.54-2.57Z"/>
  <path class="cls-10" d="M530.13,236.02c.17.76.35,1.53.52,2.29-.17-.76-.35-1.53-.52-2.29Z"/>
  <path class="cls-10" d="M528.98,228.99c.2.55.39,1.1.59,1.65-.2-.55-.39-1.1-.59-1.65Z"/>
  <path class="cls-10" d="M530.34,224.88c-.15-.48-.29-.96-.44-1.45.15.48.29.96.44,1.45Z"/>
  <path class="cls-10" d="M527.12,222c.21.35.41.7.62,1.05-.21-.35-.41-.7-.62-1.05Z"/>
  <path class="cls-10" d="M529.32,219.89c-.15-.4-.3-.8-.45-1.2.15.4.3.8.45,1.2Z"/>
  <path class="cls-10" d="M382.1,173.93c.6.22.76.65.58,1.24-.19-.41-.39-.83-.58-1.24Z"/>
  <path class="cls-10" d="M381.42,171.97c.17.22.36.42.48.66.05.09-.08.27-.13.4-.17-.22-.38-.42-.51-.66-.04-.08.1-.26.15-.4Z"/>
  <path class="cls-10" d="M380.17,168.94c.18.4.36.81.54,1.21-.59-.22-.75-.63-.54-1.21Z"/>
  <path class="cls-10" d="M379.49,166.98c.13.27.27.54.4.81-.13-.27-.27-.54-.4-.81Z"/>
  <path class="cls-10" d="M383.84,164.42c-.28.54-.71.64-1.24.42.41-.14.83-.28,1.24-.42Z"/>
  <path class="cls-10" d="M534.23,255.84c-.08-.52-.15-1.04-.22-1.57.08.52.15,1.04.22,1.57Z"/>
  <path class="cls-10" d="M533.93,253.6c-.02-.73-.04-1.45-.06-2.18.49.71.8,1.43.06,2.18Z"/>
  <path class="cls-10" d="M530.91,283.48c.14-.48.28-.96.42-1.44-.14.48-.28.96-.42,1.44Z"/>
  <path class="cls-10" d="M533.28,241.87c-.12-.51-.24-1.02-.36-1.53.12.51.24,1.02.36,1.53Z"/>
  <path class="cls-9" d="M622.97,281.86c17.53.02,29.05,16.53,22.61,32.86-5.35,13.56-13.96,25.27-22.33,37.07-1.13,1.59-2.4,2.3-3.76,0-7.73-12.99-15.99-25.8-19.76-40.63-3.9-15.33,7.49-29.32,23.24-29.3ZM623.22,317.25c6.06-.02,11.29-5.16,11.23-11.02-.06-5.87-5.32-11.19-11.13-11.25-6.29-.06-11.46,5.12-11.36,11.37.1,6.11,5.06,10.91,11.25,10.89Z"/>
  <path class="cls-2" d="M623.22,317.25c-6.19.02-11.15-4.78-11.25-10.89-.1-6.25,5.07-11.43,11.36-11.37,5.8.05,11.07,5.38,11.13,11.25.06,5.86-5.18,11-11.23,11.02Z"/>
</svg>